<?xml version="1.0" encoding="utf-8"?>
<!-- Generator: Adobe Illustrator 17.1.0, SVG Export Plug-In . SVG Version: 6.00 Build 0)  -->
<!DOCTYPE svg PUBLIC "-//W3C//DTD SVG 1.1//EN" "http://www.w3.org/Graphics/SVG/1.1/DTD/svg11.dtd">
<svg version="1.1" id="Layer_1" xmlns="http://www.w3.org/2000/svg" xmlns:xlink="http://www.w3.org/1999/xlink" x="0px" y="0px"
	 viewBox="0 0 110 110" enable-background="new 0 0 110 110" xml:space="preserve">
<g>
	<path fill-rule="evenodd" clip-rule="evenodd" fill="#3C1D4A" d="M98.7,12.4L98,11.5C92.4,4.4,83.3,0.8,74.3,2.3
		c-1.2,0.2-2.3,0.5-3.4,0.8c-8,2.7-14.5,9.7-16.5,17.9c-1.2,4.8-1.1,10.2-3.9,14.3c-3.8,5.3-11.1,6.3-17.5,6.8
		c-6.5,0.5-13.8,1.5-17.5,6.8c-2.3,3.3-2.7,7.7-2,11.7C15.2,71.4,23.8,80,33.9,83.7c10.1,3.7,21.4,2.7,31.7-0.5
		c14.3-4.6,27.3-14.3,34.3-27.6C106.8,42.1,107,25,98.7,12.4L98.7,12.4L98.7,12.4z"/>
	<path fill-rule="evenodd" clip-rule="evenodd" fill="#D5B9E3" d="M46.7,18c0,5.9-4.8,10.7-10.7,10.7S25.4,23.9,25.4,18
		c0-5.9,4.7-10.6,10.6-10.6S46.7,12.1,46.7,18L46.7,18L46.7,18z"/>
	<path fill-rule="evenodd" clip-rule="evenodd" fill="#622E78" d="M53.8,68.3c-0.1,0.5-0.8,22.4,3.3,39.7l20.2,0.1
		c0.3-11.8,4.8-30.2-1.8-40.3L53.8,68.3L53.8,68.3z"/>
	<path fill-rule="evenodd" clip-rule="evenodd" fill="#263238" d="M74.2,26.4c0.7,2.4,1.7,4.4,2.7,5.3c1,1,2,2.1,2,3.5
		c0,0.5-0.2,1.1,0.1,1.6c0.3,0.6,1.1,0.8,1.8,1.1c0.9,0.6,1.4,1.6,1.4,2.7c-0.1,1-0.5,2-1.3,2.7c-0.8,0.8-2,1.3-2.9,0.8
		c-0.6-0.3-0.9-1-1.2-1.5c-1.5-3-2.8-6.1-4.1-9.3L74.2,26.4L74.2,26.4z"/>
	<path fill-rule="evenodd" clip-rule="evenodd" fill="#EF45AA" d="M68.1,16c-2.3-2.5-6.2-2.7-8.8-0.5c-1.3,1.2-2.1,2.9-2,4.7
		c0,1.6,0.7,3.3,0,4.8c-0.5,1.1-1.5,1.9-1.6,3c-0.2,1.3,0.9,2.5,0.9,3.8c0,0.9-0.6,1.6-1.2,2.3c-0.6,0.6-1.4,1.1-1.9,1.8
		c-1.5,1.8-1.6,4.7-0.5,6.8c1.2,2.1,3.5,3.4,5.9,3.7c2.4,0.3,4.9-0.4,7-1.5c1.4-0.8,2.7-1.8,3.5-3.1c0.8-1.3,1.1-3.1,0.5-4.5
		L68.1,16L68.1,16z"/>
	<path fill-rule="evenodd" clip-rule="evenodd" fill="#455A64" d="M60.5,15.1c0.3,0,0.7,0,1.1,0c0.8,0.2,1.7,0.4,2.5,0.7
		c0.8,0.3,1.7,0.5,2.6,0.4c0.3,0,0.5,0,0.8-0.1c0.1,0,0.2-0.1,0.3-0.1c-0.4,0.1-0.7,0.1-1.1,0.1c-0.9,0-1.8-0.2-2.6-0.5
		c-0.8-0.3-1.6-0.5-2.5-0.7c-0.3,0-0.5,0-0.8,0C60.7,15,60.6,15,60.5,15.1L60.5,15.1L60.5,15.1z"/>
	<path fill-rule="evenodd" clip-rule="evenodd" fill="#FCB025" d="M80.7,45.1c0-0.3,0-0.6-0.1-1c-0.5-2.5-2.3-4.6-4.7-5.6L69.9,36
		l-6.9,0.1c0,0-5.2,2.4-6.2,3.6c-0.1,0.1-0.8,0.8-0.8,1l-5.2,15.5L44,60.4l1.8,2.3l9.8-1l1.2-1.9c-0.7,1.5-3.3,7.4-3.3,9.2
		c0,0,15.2,3.3,21.2,2.6c2.7-0.3,3.3-0.5,3.3-0.5l-1.8-6.7c1.5-0.1,3-1,3.6-2.3C81,60.1,80.9,48,80.7,45.1L80.7,45.1L80.7,45.1z"/>
	<polygon fill-rule="evenodd" clip-rule="evenodd" fill="#E0E0E0" points="33.3,47.4 32.3,47.4 33.7,60.9 46.1,60 44.7,48.4 
		33.3,47.4 33.3,47.4 	"/>
	<polygon fill-rule="evenodd" clip-rule="evenodd" fill="#FAFAFA" points="33.4,46.7 34.5,60.4 59,59.6 55.9,46.7 44.9,47.8 
		33.4,46.7 33.4,46.7 	"/>
	<path fill-rule="evenodd" clip-rule="evenodd" fill="#263238" d="M33.4,46.7h0.2l0.6,0.1l2.3,0.2l8.4,0.8l0,0l11-1.1h0v0
		c0.9,4,2,8.4,3,12.9l0,0.1h-0.1l-1.1,0l-23.3,0.8h-0.1v-0.1c-0.3-4.2-0.6-7.6-0.8-10.1c-0.1-1.2-0.1-2.1-0.2-2.7c0-0.3,0-0.5,0-0.7
		C33.4,46.8,33.4,46.7,33.4,46.7s0,0.1,0,0.3c0,0.1,0,0.4,0,0.7c0.1,0.7,0.1,1.6,0.3,2.8c0.2,2.4,0.5,5.8,0.8,10l0-0.1l23.3-0.7
		l1.2,0l-0.1,0.1c-1.1-4.6-2.1-9-3-13l0,0.1l-11,1l0,0L36.5,47l-2.3-0.2l-0.6,0L33.4,46.7L33.4,46.7z"/>
	<path fill-rule="evenodd" clip-rule="evenodd" fill="#263238" d="M46.9,59.9c0-0.1,0-0.1-0.1-0.1c0-0.1,0-0.2-0.1-0.3
		c-0.1-0.3-0.2-0.7-0.3-1.3c-0.2-1.1-0.5-2.6-0.8-4.2c-0.3-1.6-0.5-3.1-0.6-4.2c0-0.5-0.1-1-0.1-1.3c0-0.1,0-0.3,0-0.4
		c0,0,0-0.1,0-0.1c0,0,0,0.1,0,0.1c0,0.1,0,0.2,0.1,0.3c0,0.3,0.1,0.8,0.2,1.3c0.1,1.1,0.4,2.6,0.7,4.2c0.3,1.6,0.5,3.1,0.7,4.2
		c0.1,0.5,0.2,1,0.3,1.3c0,0.1,0.1,0.3,0.1,0.3C46.9,59.8,46.9,59.8,46.9,59.9L46.9,59.9L46.9,59.9z"/>
	<polygon fill-rule="evenodd" clip-rule="evenodd" fill="#B0518F" points="40.5,51.4 40.8,56.1 39.6,56.2 39.4,52.3 38.5,52.3 
		38.5,51.5 40.5,51.4 	"/>
	<path fill-rule="evenodd" clip-rule="evenodd" fill="#B0518F" d="M53.7,54.7l0.1,0.9L50.2,56l-0.1-0.7l1.7-1.9
		c0.4-0.4,0.4-0.7,0.4-0.9c0-0.4-0.3-0.6-0.8-0.5c-0.4,0-0.7,0.2-0.9,0.5L49.6,52c0.4-0.6,1-1,1.8-1.1c1.1-0.1,1.8,0.4,1.9,1.2
		c0,0.4,0,0.9-0.7,1.6l-1,1.2L53.7,54.7L53.7,54.7z"/>
	<path fill-rule="evenodd" clip-rule="evenodd" fill="#FFBE9D" d="M43.5,63.2l-2.3-1.6l0.1-3.8c0.5,0.1,0.9,0.5,1,1.1
		c0.1,0.9,0.1,1.7,0.1,1.7l0.7,0.2l-0.1-0.5l1.8-2.4c0,0,0.7,0.5,0.4,1.1c0.3-0.3,0.8-0.1,0.8,0.2l0.1-0.7c0,0,0.8-0.3,0.8,0.5
		c0,0.3,0,0.6-0.1,1h2.8c0,0-0.8,1.4-1.3,1.7c-0.5,0.4-4.6,1.5-4.6,1.5L43.5,63.2L43.5,63.2z"/>
	<path fill-rule="evenodd" clip-rule="evenodd" fill="#EB996E" d="M43.7,62.5c-0.4-0.7-0.5-1.4-0.5-2.2c0,0,0.1,0.5,0.3,1.1
		C43.5,61.9,43.7,62.4,43.7,62.5L43.7,62.5L43.7,62.5z"/>
	<path fill-rule="evenodd" clip-rule="evenodd" fill="#EB996E" d="M44.6,61.9c-0.1-0.5-0.2-1-0.3-1.5v0l0,0l0-0.1
		c0.2-0.5,0.5-1,0.8-1.4c-0.2,0.5-0.5,1-0.7,1.4l0,0.1v0C44.5,60.8,44.6,61.4,44.6,61.9L44.6,61.9L44.6,61.9z"/>
	<path fill-rule="evenodd" clip-rule="evenodd" fill="#EB996E" d="M45.8,61.4c-0.1-0.3-0.1-0.6-0.1-0.9l0,0c0-0.1,0-0.3,0.1-0.5
		c0.1-0.4,0.2-0.9,0.4-1.3c-0.1,0.4-0.1,0.9-0.3,1.3l-0.1,0.4l0,0C45.8,60.8,45.8,61.1,45.8,61.4L45.8,61.4L45.8,61.4z"/>
	<path fill-rule="evenodd" clip-rule="evenodd" fill="#FFBE9D" d="M71.2,18.2v1.2l0.2,18.5c0,2.2-1.8,3.9-4.1,3.9l0,0
		c-2.3,0-4.2-1.7-4.3-3.9c-0.1-2.3-0.2-4.7-0.2-4.7s-3-0.4-3.7-4.2c-0.3-1.9-0.3-5-0.3-7.6c0.1-2.2,1.9-3.9,4.1-3.9
		c0.1,0,0.1,0,0.2,0L71.2,18.2L71.2,18.2z"/>
	<path fill-rule="evenodd" clip-rule="evenodd" fill="#263238" d="M60.4,24.1c0,0.3,0.2,0.5,0.5,0.5c0.3,0,0.5-0.1,0.5-0.4
		c0,0,0,0,0,0c0-0.3-0.3-0.5-0.5-0.5S60.4,23.9,60.4,24.1C60.4,24.1,60.4,24.1,60.4,24.1L60.4,24.1L60.4,24.1z"/>
	<path fill-rule="evenodd" clip-rule="evenodd" fill="#263238" d="M59.7,23c0,0.1,0.4-0.2,0.9-0.2c0.5,0,0.9,0.3,0.9,0.2
		c0.1-0.1,0-0.1-0.2-0.3c-0.2-0.2-0.5-0.2-0.8-0.2c-0.3,0-0.5,0.1-0.7,0.3C59.7,22.9,59.7,23,59.7,23L59.7,23L59.7,23z"/>
	<path fill-rule="evenodd" clip-rule="evenodd" fill="#263238" d="M65.6,24.1c0,0.3,0.2,0.5,0.5,0.5c0.3,0,0.5-0.1,0.5-0.4
		c0,0,0,0,0,0c0-0.3-0.3-0.5-0.5-0.5C65.8,23.7,65.6,23.9,65.6,24.1C65.6,24.1,65.6,24.1,65.6,24.1L65.6,24.1L65.6,24.1z"/>
	<path fill-rule="evenodd" clip-rule="evenodd" fill="#263238" d="M64.9,23c0,0.1,0.4-0.2,0.9-0.2c0.5,0,0.9,0.3,0.9,0.2
		c0.1-0.1,0-0.1-0.2-0.3c-0.2-0.2-0.5-0.2-0.8-0.2c-0.3,0-0.5,0.1-0.7,0.3C64.9,22.8,64.9,22.9,64.9,23L64.9,23L64.9,23z"/>
	<path fill-rule="evenodd" clip-rule="evenodd" fill="#263238" d="M63,26.9c-0.3-0.1-0.5-0.1-0.8-0.1c-0.1,0-0.3,0-0.3-0.1
		c0-0.1,0-0.3,0.1-0.4l0.4-1c0.5-1.5,0.9-2.7,0.8-2.7c0,0-0.5,1.1-1,2.6l-0.3,1.1c-0.1,0.1-0.1,0.3-0.1,0.5c0,0.1,0.1,0.2,0.2,0.2
		c0.1,0,0.1,0,0.3,0C62.4,27,62.7,27,63,26.9L63,26.9L63,26.9z"/>
	<path fill-rule="evenodd" clip-rule="evenodd" fill="#EB996E" d="M62.9,33.2c1.8,0,3.5-0.5,5.1-1.5c0,0-1.2,2.6-5,2.4L62.9,33.2
		L62.9,33.2z"/>
	<path fill-rule="evenodd" clip-rule="evenodd" fill="#EB996E" d="M63.3,28.2c0.2-0.3,0.5-0.4,0.8-0.4c0.3,0,0.5,0.1,0.6,0.3
		c0.1,0.2,0.2,0.4,0.1,0.6c-0.2,0.2-0.5,0.3-0.7,0.2c-0.3-0.1-0.5-0.2-0.7-0.4c-0.1,0-0.1-0.1-0.2-0.1
		C63.3,28.3,63.3,28.2,63.3,28.2L63.3,28.2L63.3,28.2z"/>
	<path fill-rule="evenodd" clip-rule="evenodd" fill="#263238" d="M64.6,27.3c-0.1,0-0.1,0.5-0.5,1c-0.5,0.4-1.1,0.4-1.1,0.5
		c0,0,0.1,0.1,0.4,0.1c0.4,0,0.7-0.1,0.9-0.4c0.2-0.2,0.4-0.5,0.4-0.8C64.7,27.4,64.6,27.3,64.6,27.3L64.6,27.3L64.6,27.3z"/>
	<path fill-rule="evenodd" clip-rule="evenodd" fill="#263238" d="M64.6,20.9c0,0.1,0.5,0,1.2,0.1c0.6,0,1.1,0.2,1.2,0.1
		c0-0.1,0-0.2-0.3-0.3c-0.5-0.3-1.2-0.3-1.8-0.1C64.7,20.7,64.6,20.8,64.6,20.9L64.6,20.9L64.6,20.9z"/>
	<path fill-rule="evenodd" clip-rule="evenodd" fill="#263238" d="M59.8,21.5c0.1,0.1,0.4,0,0.9,0c0.4,0,0.8,0.1,0.9-0.1
		c0,0,0-0.2-0.2-0.3c-0.2-0.1-0.5-0.1-0.7-0.1c-0.3,0-0.5,0.1-0.7,0.2C59.8,21.3,59.8,21.4,59.8,21.5L59.8,21.5L59.8,21.5z"/>
	<path fill-rule="evenodd" clip-rule="evenodd" fill="#EF45AA" d="M66.4,16.9c-1,1.4,0,3.3,1.2,4.5c1.2,1.2,2.6,2.6,2.3,4.3
		c-0.4,1.9-3,3.1-2.6,5.1c0.1,0.7,0.7,1.3,0.7,2c0,1.3-1.6,1.9-2.2,3.1c-0.6,1.6,1.2,3.3,1.2,5.1c0,1-0.5,1.9-0.6,3
		c-0.1,2,2.4,3.6,4.4,3.1c2-0.5,3.4-2.5,3.8-4.5c0.4-2-0.2-4.9-0.5-6.9l3.5,0.8c0.7-0.6-0.2-1.3-0.4-2.2c-0.4-2.2-1.8-4.1-2.5-6.2
		c-0.6-1.9-0.6-3.8-0.9-5.8c-0.3-1.9-0.9-3.9-2.3-5.2c-1.5-1.2-4.1-1.4-5.3,0.1L66.4,16.9L66.4,16.9z"/>
	<path fill-rule="evenodd" clip-rule="evenodd" fill="#FFBE9D" d="M68.6,52.4l-1.1-1.4l1.5-3.2l0.5-7.5c0,0-1.1-0.2-1.2,0.9
		c-0.1,0.7-0.1,1.3-0.1,1.3L67,42.1l-1.7,0.5c0,0,0.1,0.9,0.8,0.7c0.4-0.1,0.8-0.1,1.2-0.1l0.6,0.9v0.4l-0.8-0.6h-1.7l-1,0.9
		c0,0,0.3,0.8,0.9,0.6c0,0-0.9,2.4-1,2.9c0,0-0.9,2.4,0,3.8c0.6,0.9,1.4,1.8,2.2,2.6L68.6,52.4L68.6,52.4z"/>
	<path fill-rule="evenodd" clip-rule="evenodd" fill="#EB996E" d="M69.1,45c0-0.1,0.1-0.2,0.1-0.4c-0.1-0.3-0.2-0.6-0.4-0.9
		c-0.2-0.4-0.4-0.8-0.5-1.3c0.2,0.4,0.4,0.8,0.6,1.2c0.1,0.2,0.1,0.4,0.2,0.5c0.1,0.1,0.1,0.3,0.1,0.4C69.3,44.8,69.2,44.9,69.1,45
		C69.1,45,69.1,45.1,69.1,45L69.1,45L69.1,45z"/>
	<path fill-rule="evenodd" clip-rule="evenodd" fill="#EB996E" d="M68.6,44.9c-0.3-0.1-0.5-0.3-0.8-0.5c-0.4-0.3-0.7-0.6-0.7-0.6
		c0.3,0.1,0.5,0.3,0.7,0.5C68.1,44.4,68.4,44.6,68.6,44.9L68.6,44.9L68.6,44.9z"/>
	<path fill-rule="evenodd" clip-rule="evenodd" fill="#EB996E" d="M67.8,46.2c-0.1-0.1-0.3-0.2-0.3-0.4c-0.1-0.1-0.2-0.3-0.3-0.5
		c0-0.1-0.1-0.2-0.1-0.3c0,0,0-0.1-0.1-0.1c-0.1,0-0.1,0-0.2,0c-0.3,0-0.7-0.1-0.9-0.1l0,0c-0.1,0.1-0.2,0.1-0.3,0.2
		c-0.1,0.1-0.1,0.1-0.2,0.2c-0.1,0.1-0.2,0.1-0.2,0.1s0-0.1,0.1-0.2l0.2-0.2c0.1-0.1,0.1-0.2,0.3-0.2h0c0.3,0,0.6,0,0.9,0.1
		c0.1,0,0.1,0,0.2,0c0.1,0,0.1,0.1,0.1,0.2c0,0.1,0.1,0.2,0.1,0.3c0.1,0.2,0.1,0.4,0.3,0.5C67.8,46.1,67.9,46.2,67.8,46.2L67.8,46.2
		L67.8,46.2z"/>
	<path fill-rule="evenodd" clip-rule="evenodd" fill="#EB996E" d="M66.3,46.5c0-0.3,0-0.6,0.1-0.8c0-0.3,0.1-0.6,0.2-0.8
		c0,0.3,0,0.5-0.1,0.8C66.5,46,66.4,46.3,66.3,46.5L66.3,46.5L66.3,46.5z"/>
	<path fill-rule="evenodd" clip-rule="evenodd" fill="#EB996E" d="M67.5,47.9c0-0.1,0-0.2,0-0.3c-0.1-0.1-0.1-0.1-0.2-0.2
		c-0.1,0-0.3,0-0.4,0c-0.1,0-0.3,0.1-0.4,0.2c-0.1,0.1-0.3,0.2-0.5,0.3c-0.2,0.1-0.5,0-0.6-0.2c0-0.1,0-0.2,0-0.4
		c0-0.1,0.1-0.2,0.2-0.3c0.3-0.3,0.6-0.6,0.9-0.9C66.6,46,66.8,46,67,46c0.1,0,0.3,0,0.5,0.1c0.2,0.1,0.4,0.3,0.5,0.5
		c0,0.1,0.1,0.1,0.1,0.2c-0.1-0.1-0.1-0.1-0.2-0.2c-0.1-0.2-0.3-0.3-0.5-0.4c-0.1-0.1-0.3-0.1-0.4-0.1c-0.2,0-0.3,0.1-0.5,0.2
		c-0.3,0.3-0.6,0.5-0.9,0.9c-0.1,0.2-0.2,0.4-0.1,0.5c0.1,0.1,0.3,0.2,0.5,0.2c0.4-0.1,0.6-0.4,0.9-0.5c0.1,0,0.3,0,0.4,0
		c0.1,0,0.1,0.1,0.2,0.2C67.6,47.8,67.5,47.9,67.5,47.9L67.5,47.9L67.5,47.9z"/>
	<path fill-rule="evenodd" clip-rule="evenodd" fill="#263238" d="M78.5,63.6c0,0.1-0.1,0.2-0.2,0.3c-0.2,0.2-0.5,0.4-0.8,0.5
		c-0.5,0.2-0.9,0.3-1.5,0.3c-0.7,0-1.4-0.1-2-0.4c-0.7-0.3-1.4-0.8-2-1.3c-0.7-0.5-1.4-1.2-2.1-1.8c-0.8-0.7-1.5-1.4-2.2-2.2
		c-0.7-0.9-1.3-1.8-1.8-2.7c-0.1-0.2-0.3-0.4-0.4-0.6v-0.1v0l3.9-4h0h0c2.5,1.6,4.6,3,6.1,3.9l1.8,1.1l0.4,0.3l0.1,0.1l0,0
		c0,0,0,0-0.1,0l-0.1-0.1l-0.5-0.3c-0.4-0.3-1-0.6-1.8-1.1c-1.5-1-3.6-2.3-6.1-3.9h0.1l-3.9,4v-0.1c0.1,0.2,0.3,0.4,0.4,0.6
		c0.5,1,1.2,1.9,1.8,2.7c0.7,0.8,1.4,1.5,2.1,2.2c1.5,1.3,2.8,2.5,4.1,3.1c0.6,0.3,1.3,0.4,1.9,0.4c0.5,0,1-0.1,1.5-0.3
		c0.3-0.1,0.5-0.3,0.8-0.5C78.5,63.6,78.5,63.6,78.5,63.6L78.5,63.6L78.5,63.6z"/>
	<path fill-rule="evenodd" clip-rule="evenodd" fill="#263238" d="M74.4,47.6c0,0.1,0,0.1,0,0.3c0,0.2,0,0.4,0,0.7
		c0,0.7-0.1,1.5-0.1,2.4s-0.1,1.8-0.1,2.4l0,0.7c0,0.1,0,0.2,0,0.3c0-0.1,0-0.2,0-0.3c0-0.2,0-0.4,0-0.7c0-0.6,0-1.5,0.1-2.4
		s0.1-1.8,0.1-2.4C74.3,48.3,74.3,47.9,74.4,47.6L74.4,47.6L74.4,47.6z"/>
	<path fill-rule="evenodd" clip-rule="evenodd" fill="#263238" d="M77.6,41c0,0-0.3,0.1-0.7,0.3c-0.2,0.1-0.5,0.3-0.7,0.5
		c-0.5,0.4-0.9,1-1.2,1.6c-0.1,0.3-0.2,0.5-0.3,0.8c-0.1,0.4-0.1,0.7-0.1,0.7c0,0,0-0.1,0-0.2c0-0.2,0-0.4,0.1-0.5
		c0-0.3,0.1-0.5,0.3-0.8c0.3-0.7,0.7-1.2,1.2-1.6c0.2-0.2,0.4-0.3,0.7-0.5c0.1-0.1,0.3-0.1,0.5-0.2C77.4,41,77.5,41,77.6,41L77.6,41
		L77.6,41z"/>
	<path fill-rule="evenodd" clip-rule="evenodd" fill="#263238" d="M58,55c-0.1-0.1-0.1-0.3-0.2-0.4c-0.1-0.3-0.3-0.7-0.4-1.1
		c-0.4-1-0.8-2.3-0.8-3.8c0-0.4,0-0.8,0.1-1.1c0.1-0.3,0.1-0.7,0.3-1c0.2-0.6,0.4-1.2,0.5-1.7c0.1-0.4,0.1-0.8,0.1-1.2
		c0-0.3,0-0.4,0-0.4s0,0,0,0.1c0,0.1,0,0.2,0.1,0.3c0,0.4,0,0.8-0.1,1.2c-0.1,0.5-0.3,1.1-0.4,1.7c-0.1,0.3-0.2,0.7-0.2,1
		c-0.1,0.4-0.1,0.7-0.1,1.1c0,1.5,0.5,2.9,0.8,3.8c0.1,0.5,0.3,0.9,0.4,1.1C57.9,54.7,58,54.9,58,55L58,55L58,55z"/>
	<path fill-rule="evenodd" clip-rule="evenodd" fill="#263238" d="M70.3,65.2c0,0-0.1,0-0.1,0l-0.3,0.1c-0.3,0.1-0.7,0.2-1.2,0.4
		c-0.5,0.1-1.2,0.3-1.9,0.4c-0.7,0.1-1.5,0.2-2.3,0.3c-0.8,0.1-1.6,0.1-2.3,0c-0.7,0-1.4-0.1-1.9-0.1c-0.5-0.1-0.9-0.1-1.2-0.2
		L58.6,66c0,0-0.1,0-0.1,0c0,0,0.1,0,0.1,0l0.3,0c0.3,0.1,0.7,0.1,1.3,0.2c0.5,0,1.2,0.1,1.9,0.1c0.7,0,1.5,0,2.3-0.1
		c0.8,0,1.6-0.1,2.3-0.3c0.7-0.1,1.4-0.3,1.9-0.4c0.5-0.1,0.9-0.3,1.2-0.3l0.3-0.1C70.2,65.2,70.2,65.2,70.3,65.2L70.3,65.2
		L70.3,65.2z"/>
	<path fill-rule="evenodd" clip-rule="evenodd" fill="#263238" d="M57.1,59.6c0,0.1-0.1,0.3-0.1,0.4c-0.1,0.3-0.2,0.6-0.4,1
		c-0.3,0.8-0.8,2-1.2,3.3c-0.5,1.3-0.9,2.5-1.2,3.4l-0.3,1c0,0.1-0.1,0.3-0.1,0.4c0-0.1,0-0.3,0.1-0.4c0-0.3,0.1-0.6,0.3-1.1
		c0.3-0.9,0.7-2.1,1.1-3.4c0.5-1.3,0.9-2.5,1.3-3.3l0.4-1C57.1,59.7,57.1,59.6,57.1,59.6L57.1,59.6L57.1,59.6z"/>
	<path fill-rule="evenodd" clip-rule="evenodd" fill="#455A64" d="M74.7,107.9c0,0,0-0.1,0-0.1c0-0.1,0-0.1,0-0.3c0-0.3,0-0.6,0-1.1
		c0-0.9,0-2.2,0-3.8c0-3.2,0.1-7.7,0-12.6c0-4.9-0.2-9.4-0.5-12.6c-0.1-0.8-0.1-1.5-0.3-2.2c0-0.3-0.1-0.6-0.1-0.9
		c0-0.1,0-0.3,0-0.4c0-0.1,0-0.3-0.1-0.4c-0.1-0.4-0.1-0.8-0.1-1c0-0.1,0-0.2,0-0.3c0,0,0-0.1,0-0.1s0,0,0,0.1l0.1,0.3
		c0,0.3,0.1,0.6,0.2,1c0,0.1,0,0.2,0.1,0.4c0,0.1,0,0.2,0,0.4c0,0.3,0.1,0.6,0.1,0.9c0.1,0.6,0.1,1.4,0.3,2.2
		c0.3,3.2,0.5,7.7,0.5,12.6c0,4.9,0,9.4,0,12.6c0,1.6,0,2.9,0,3.8v1c0,0.1,0,0.2,0,0.3C74.7,107.8,74.7,107.9,74.7,107.9L74.7,107.9
		L74.7,107.9z"/>
	<path fill-rule="evenodd" clip-rule="evenodd" fill="#263238" d="M71.8,17.8c-0.1-0.7,0.3-1.3,0.9-1.6c0.6-0.2,1.4-0.2,1.9,0.1
		c1.2,0.7,1.7,2.3,1,3.5c-0.1,0.3-0.4,0.5-0.6,0.7c-0.3,0.3-0.8,0.5-1.3,0.5c-0.4,0-0.8-0.2-1.2-0.4c-0.4-0.1-0.8-0.2-1.2,0
		L71.8,17.8L71.8,17.8z"/>
	<path fill-rule="evenodd" clip-rule="evenodd" fill="#B0518F" d="M73.5,21c-0.1-0.7-0.4-1.3-0.7-1.9c-0.3-0.6-0.7-1.1-1.1-1.6
		c0.1,0.1,0.3,0.2,0.4,0.4c0.7,0.7,1.1,1.6,1.3,2.5C73.5,20.6,73.6,20.8,73.5,21L73.5,21L73.5,21z"/>
	<path fill-rule="evenodd" clip-rule="evenodd" fill="#455A64" d="M73,19.4c-0.1,0.1-0.1,0.1-0.3,0.2c-0.3,0.1-0.5,0.3-0.8,0.4
		c-0.9,0.3-2,0.4-3,0.3c-0.5-0.1-1.1-0.3-1.6-0.5c-0.4-0.2-0.8-0.5-1-0.9C66.1,18.6,66,18.3,66,18c0-0.1,0-0.2,0-0.3
		c0-0.1,0-0.1,0-0.1s0,0.1,0,0.3c0,0.3,0.1,0.6,0.3,0.8c0.4,0.7,1.4,1.1,2.6,1.4c1,0.1,2,0.1,2.9-0.2C72.2,19.8,72.6,19.6,73,19.4
		L73,19.4L73,19.4z"/>
	<path fill-rule="evenodd" clip-rule="evenodd" fill="#455A64" d="M73.2,20.8c0,0,0,0-0.1,0.1c-0.1,0.1-0.2,0.3-0.4,0.4
		c-0.9,0.8-2.1,1.2-3.3,1.2c-0.2,0-0.4,0-0.5,0c-0.1,0-0.2,0-0.2,0s0.3,0,0.7,0c0.6,0,1.2-0.1,1.7-0.3c0.5-0.2,1.1-0.5,1.5-0.9
		C73,21,73.2,20.8,73.2,20.8L73.2,20.8L73.2,20.8z"/>
	<path fill-rule="evenodd" clip-rule="evenodd" fill="#455A64" d="M75.6,18c0,0.1,0,0.3,0,0.5c-0.3,0.8-1.1,1.3-1.9,1.2
		c-0.2,0-0.3-0.1-0.4-0.2c0,0,0.1,0.1,0.4,0.1c0.8,0.1,1.5-0.4,1.8-1.1C75.6,18.2,75.6,18,75.6,18L75.6,18L75.6,18z"/>
	<polygon fill-rule="evenodd" clip-rule="evenodd" fill="#455A64" points="102.3,98.6 7.7,98.6 7.5,101.6 25.8,101.6 25.8,108 
		27.6,108 27.6,101.6 94.9,101.6 94.9,108 96.6,108 96.6,101.6 102.3,101.6 102.3,98.6 102.3,98.6 	"/>
	<path fill-rule="evenodd" clip-rule="evenodd" fill="#FFBE9D" d="M82.7,75.5c0-0.1-1.9-8.8-2.1-9.4l1.6-2.4c0,0,0.6-0.6,0.4-0.8
		c-0.2-0.3-0.5-0.3-0.9-0.1c-0.2,0.1-1.4,0.8-1.4,0.8s-0.4-3.5-0.5-3.8c-0.1-0.2-0.3-0.4-0.5-0.2c-0.2,0.2-0.1,2.6-0.1,2.6
		s-0.9-2.9-1.1-3c-0.2-0.1-0.4,0-0.5,0.1c0,0,0,0.1,0,0.1c0,0.1,0.7,3.3,0.7,3.3s-1.5-2.9-1.8-2.8c-0.2,0-0.3,0.2-0.3,0.4
		c0,0.2,1,3.2,1,3.2s-1.1-2.2-1.4-2.2c-0.2,0.1-0.3,0.4-0.3,0.6c0,0.2,1.5,4.5,1.7,5.3l0,0l0.6,10.3l4.1,9l3.8-5.3
		C85.7,81.3,82.7,75.6,82.7,75.5L82.7,75.5L82.7,75.5z"/>
	<path fill-rule="evenodd" clip-rule="evenodd" fill="#FFBE9D" d="M88,78.1c0,0-0.5,7.3,0.5,8.4c1,1.2,3,0.9,3,0.9l1.3-6.2L88,78.1
		L88,78.1z"/>
	<path fill-rule="evenodd" clip-rule="evenodd" fill="#B0518F" d="M85.8,81.4l1.9,2.6l4.3,2.3l9.7,5.1c1,0.5,1.5,1.7,1.2,2.9
		l-0.4,1.1l-3.6,9l0.2,3.7l-19.4,0c0,0,4.3-14.2,4.5-15.1c0.1-0.9-0.7-2.1-0.7-2.1s-2.5-1.8-2.5-2C80.9,88.6,81.3,81.7,85.8,81.4
		L85.8,81.4L85.8,81.4z"/>
	<path fill-rule="evenodd" clip-rule="evenodd" fill="#263238" d="M85.3,96.5c0,0,0-0.4,0-0.9c0-0.3-0.1-0.7-0.1-1
		c-0.1-0.4-0.2-0.8-0.4-1.1c-0.3-0.7-0.6-1.3-0.9-1.9c-0.3-0.5-0.5-0.7-0.5-0.7c0,0,0.1,0.1,0.1,0.1c0.1,0.1,0.2,0.3,0.4,0.5
		c0.4,0.6,0.7,1.3,1,1.9c0.1,0.4,0.3,0.8,0.3,1.2c0.1,0.3,0.1,0.7,0.1,1c0,0.1,0,0.3,0,0.4c0,0.1,0,0.2,0,0.3
		C85.4,96.3,85.4,96.4,85.3,96.5L85.3,96.5L85.3,96.5z"/>
	<path fill-rule="evenodd" clip-rule="evenodd" fill="#263238" d="M96.4,103.4c-0.1,0-0.3,0.1-0.4,0.1c-0.3,0.1-0.6,0.2-1,0.3
		c-0.9,0.3-2.1,0.7-3.4,1c-1.4,0.4-2.6,0.7-3.5,0.9c-0.4,0.1-0.8,0.2-1.1,0.3c-0.1,0-0.3,0-0.4,0.1c0.1-0.1,0.2-0.1,0.4-0.1l1.1-0.3
		l3.5-1l3.4-1l1.1-0.3C96.1,103.4,96.2,103.4,96.4,103.4L96.4,103.4L96.4,103.4z"/>
	<path fill-rule="evenodd" clip-rule="evenodd" fill="#FAFAFA" d="M102.7,94.4l-0.2,0c-0.1-0.1-0.3-0.1-0.5-0.1
		c-0.6-0.2-1.2-0.2-1.8-0.2c-1,0.1-1.9,0.4-2.7,1c-0.5,0.4-0.9,0.8-1.3,1.3c-0.4,0.6-0.7,1.2-0.8,1.9c-0.1,0.3,0,0.7,0,1.1
		c0.1,0.4,0.3,0.7,0.6,1c0.7,0.4,1.6,0.4,2.3,0c0.7-0.5,1-1.5,0.8-2.3c-0.2-0.9-0.8-1.7-1.7-2c-0.9-0.4-1.9-0.4-2.8-0.2
		c-0.5,0.1-0.9,0.3-1.4,0.6c-0.5,0.3-0.9,0.5-1.3,0.9c-0.8,0.7-1.4,1.6-1.8,2.5c-0.2,0.5-0.4,1-0.4,1.6c0,0.3,0,0.5,0,0.8
		c0,0.3,0.1,0.5,0.2,0.8c0.1,0.2,0.4,0.3,0.7,0.4c0.3,0,0.5,0,0.8,0c0.5-0.1,1-0.4,1.3-0.9c0.6-0.9,0.5-2.1-0.3-2.9
		c-0.4-0.3-0.8-0.6-1.3-0.7c-0.5-0.1-1-0.2-1.5-0.1c-1,0.1-1.9,0.3-2.8,0.8c-0.8,0.5-1.5,1.1-2.1,1.8c-0.5,0.7-0.9,1.6-0.9,2.4
		c0,0.8,0.5,1.6,1.3,1.8c0.4,0.1,0.8,0.1,1.1-0.1c0.3-0.2,0.6-0.4,0.7-0.8c0.3-0.6,0.4-1.3,0.3-2c-0.1-0.6-0.3-1.2-0.7-1.7
		c-0.5-1-1.5-1.6-2.3-1.6c-0.3,0-0.7,0-1,0.1c-0.3,0.1-0.5,0.2-0.7,0.4c-0.1,0.1-0.3,0.3-0.4,0.5c0,0,0,0,0-0.1
		c0.1-0.1,0.2-0.3,0.3-0.4c0.5-0.4,1.1-0.7,1.7-0.6c0.8,0,1.8,0.7,2.4,1.6c0.3,0.5,0.5,1.1,0.7,1.7c0.2,0.7,0.1,1.4-0.2,2
		c-0.2,0.4-0.5,0.6-0.8,0.8c-0.4,0.2-0.8,0.3-1.2,0.1c-0.8-0.3-1.4-1.1-1.4-1.9c0-0.9,0.4-1.8,0.9-2.5c1.2-1.6,3-2.6,5-2.7
		c0.5,0,1,0,1.5,0.2c0.5,0.1,1,0.4,1.4,0.7c0.8,0.8,0.9,2.1,0.3,3c-0.3,0.5-0.8,0.8-1.4,1c-0.3,0.1-0.6,0.1-0.8,0
		c-0.3,0-0.6-0.2-0.7-0.4c-0.2-0.2-0.3-0.5-0.3-0.8c0-0.3,0-0.5,0-0.8c0.1-0.5,0.2-1.1,0.4-1.6c0.4-1,1.1-1.9,1.9-2.6
		c0.4-0.3,0.8-0.6,1.3-0.9c0.4-0.3,0.9-0.4,1.4-0.6c0.9-0.3,2-0.2,2.9,0.2c0.9,0.4,1.5,1.2,1.8,2.1c0.2,0.9-0.1,1.8-0.9,2.4
		c-0.7,0.5-1.7,0.5-2.4,0c-0.3-0.3-0.5-0.6-0.7-1c-0.1-0.4-0.1-0.8,0-1.1c0.1-0.7,0.4-1.3,0.8-1.9c0.4-0.5,0.8-1,1.3-1.3
		c1.4-1,3-1.2,4.6-0.8C102.3,94.2,102.5,94.3,102.7,94.4L102.7,94.4L102.7,94.4z"/>
	<path fill-rule="evenodd" clip-rule="evenodd" fill="#FAFAFA" d="M89.7,86.5c-0.1,0.3-0.3,0.5-0.5,0.7c-0.5,0.5-1.2,0.9-1.9,1
		c-0.5,0.1-1,0.1-1.5-0.1c-0.5-0.1-1.1-0.4-1.5-0.8c-0.2-0.2-0.4-0.5-0.6-0.7s-0.3-0.6-0.4-0.9c-0.1-0.3-0.1-0.7,0.1-1
		c0.2-0.3,0.6-0.5,0.9-0.5c0.4,0,0.7,0.1,1,0.3c0.3,0.2,0.5,0.4,0.8,0.7c0.4,0.5,0.5,1.2,0.5,1.9c0,0.3,0,0.6-0.1,0.9
		c-0.1,0.3-0.2,0.5-0.4,0.8c-0.3,0.4-0.7,0.7-1.2,1c-0.7,0.3-1.4,0.4-2.2,0.3c-0.3,0-0.5-0.1-0.8-0.2c0.2,0.1,0.5,0.1,0.8,0.2
		c0.7,0.1,1.5,0,2.1-0.4c0.4-0.2,0.8-0.5,1.1-0.9c0.1-0.2,0.3-0.5,0.4-0.7c0.1-0.3,0.1-0.6,0.1-0.9c0-0.6-0.1-1.2-0.5-1.8
		c-0.2-0.3-0.4-0.5-0.7-0.7c-0.3-0.2-0.7-0.3-1-0.3c-0.3,0-0.6,0.1-0.8,0.4c-0.1,0.3-0.2,0.6-0.1,1c0.1,0.3,0.2,0.6,0.4,0.8
		c0.2,0.3,0.4,0.5,0.6,0.7c0.4,0.4,0.9,0.7,1.5,0.8c0.5,0.1,1,0.2,1.5,0.1c0.7-0.1,1.4-0.5,1.9-1C89.4,86.9,89.6,86.7,89.7,86.5
		L89.7,86.5L89.7,86.5z"/>
	<path fill-rule="evenodd" clip-rule="evenodd" fill="#FAFAFA" d="M98.7,107.2c0,0-0.3-0.1-0.6-0.3c-1-0.4-2.2-0.2-3,0.5
		c-0.3,0.3-0.4,0.5-0.4,0.5c0,0,0,0,0.1-0.1c0.1-0.1,0.2-0.3,0.3-0.4c0.4-0.4,0.9-0.7,1.5-0.7c0.5-0.1,1.1,0,1.6,0.2
		c0.1,0.1,0.3,0.2,0.4,0.3C98.6,107.2,98.7,107.2,98.7,107.2L98.7,107.2L98.7,107.2z"/>
	<path fill-rule="evenodd" clip-rule="evenodd" d="M95.9,87.1c-1.9-0.8-4-0.9-6-1.8L87.6,84c0.2,0.3,0.8,0.6,1,1.2
		c0.1,0.5,0.1,1.1,0.1,1.7c-0.1,1.5,0.1,3,0.4,4.5c0.2,0.9,0.6,1.9,1.5,2.2c0.6,0.2,1.2,0,1.8-0.1c2.7-0.8,5.9-1.6,8.6-2.4
		C100.1,89.1,97.7,87.9,95.9,87.1L95.9,87.1L95.9,87.1z"/>
	<path fill-rule="evenodd" clip-rule="evenodd" fill="#263238" d="M102.1,78.4c-0.3-1.4-0.7-2.9-1.7-3.9c-1.1-1.3-2.8-1.9-4.5-2
		c-1.5-0.1-1.7-0.8-3.2-0.5c-0.6,0.1-1.1,0.3-1.6,0.6c-2,1.2-3.2,3.3-3.8,5.7c-0.2,0.9-0.2,2,0.5,2.6c0.5,0.4,1.3,0.4,1.9,0.7
		c0.6,0.4,0.8,1.3,0.7,2c-0.1,0.8-0.5,1.4-0.7,2.2c-0.5,1.8-0.1,3.6,0.2,5.4l10.7-0.3c0.4,0,0.9,0,1.2-0.3c0.2-0.3,0.4-0.6,0.4-1
		C102.9,85.9,102.8,82.1,102.1,78.4L102.1,78.4L102.1,78.4z"/>
	<path fill-rule="evenodd" clip-rule="evenodd" fill="#455A64" d="M88.1,78.7c0-0.1,0-0.2,0-0.3c0-0.1,0-0.2,0.1-0.3
		c0-0.1,0-0.3,0.1-0.4c0.1-0.4,0.2-0.8,0.4-1.1c0.2-0.4,0.4-0.9,0.7-1.3c0.3-0.4,0.6-0.8,0.9-1.1c0.3-0.3,0.6-0.5,0.9-0.8
		c0.1-0.1,0.3-0.2,0.4-0.3c0.1-0.1,0.2-0.1,0.3-0.2c0.1,0,0.2-0.1,0.3-0.1c0,0-0.3,0.2-0.9,0.6c-0.3,0.3-0.6,0.5-0.9,0.8
		c-0.3,0.4-0.6,0.7-0.9,1.1c-0.3,0.4-0.5,0.8-0.7,1.3c-0.2,0.3-0.3,0.7-0.4,1.1C88.2,78.2,88.1,78.7,88.1,78.7L88.1,78.7L88.1,78.7z
		"/>
	<path fill-rule="evenodd" clip-rule="evenodd" fill="#455A64" d="M89.4,80.1c0-0.3,0-0.5,0-0.7c0.1-0.6,0.2-1.1,0.3-1.7
		c0.1-0.6,0.3-1.1,0.5-1.6c0.1-0.2,0.2-0.4,0.3-0.6c-0.1,0.2-0.2,0.4-0.3,0.7c-0.4,1.1-0.7,2.2-0.8,3.3
		C89.5,79.7,89.5,79.9,89.4,80.1L89.4,80.1L89.4,80.1z"/>
	<path fill-rule="evenodd" clip-rule="evenodd" fill="#455A64" d="M99.9,89c0,0,0-0.1,0-0.1c0-0.1-0.1-0.3-0.1-0.5
		c-0.1-0.6-0.1-1.2-0.1-1.9c0-0.8,0-1.8,0.1-2.8c0.1-1.1,0.2-2.3,0.2-3.4c0-1.1-0.2-2.2-0.6-3.3c-0.3-0.9-0.8-1.6-1.5-2.3
		c-0.4-0.4-1-0.8-1.6-1c-0.1-0.1-0.3-0.1-0.5-0.1c0,0-0.1,0-0.1,0c0,0,0.1,0,0.1,0c0.2,0,0.4,0.1,0.5,0.1c0.6,0.2,1.2,0.5,1.6,1
		c0.7,0.7,1.2,1.4,1.6,2.3c0.4,1.1,0.6,2.2,0.6,3.4c0,1.1,0,2.3-0.1,3.4c-0.1,1-0.1,2-0.2,2.8c0,0.6,0,1.2,0.1,1.9
		c0,0.2,0.1,0.4,0.1,0.5C99.9,88.9,99.9,89,99.9,89L99.9,89L99.9,89z"/>
	<path fill-rule="evenodd" clip-rule="evenodd" fill="#455A64" d="M98.8,88.9c0-0.3-0.1-0.5-0.1-0.8c0-0.5,0-1.2,0-1.9
		c0-0.8,0.1-1.5,0.1-1.9c0-0.3,0.1-0.5,0.1-0.8c0,0.3,0,0.5,0,0.8c0,0.5-0.1,1.2-0.1,1.9c0,0.8,0,1.5,0,1.9
		C98.9,88.4,98.9,88.6,98.8,88.9L98.8,88.9L98.8,88.9z"/>
	<path fill-rule="evenodd" clip-rule="evenodd" fill="#FFBE9D" d="M50.7,81.9c0.1,1.4,0.2,2.7,0.3,4.1c-1.1,0.2-2.2,0.3-3.2,0.1
		c-1-0.3-2-0.9-2.4-1.9c-0.1-0.2-0.1-0.4-0.1-0.6c0-0.2,0.2-0.4,0.4-0.4L50.7,81.9L50.7,81.9z"/>
	<path fill-rule="evenodd" clip-rule="evenodd" fill="#D53C7F" d="M53.5,77.4c0.1-0.5,0.8-0.8,0.9-1.4c0-0.5-0.7-0.8-0.9-1.4
		c-0.3-0.8,0.6-1.6,0.4-2.4c-0.3-1-1.9-1.1-2.2-2c-0.1-0.4,0-0.9-0.3-1.2c-0.4-0.4-1.1,0-1.7-0.2c-0.5-0.2-0.6-0.9-1.1-1.1
		c-0.5-0.2-1.1,0.1-1.6,0.4c-0.1,0.1-0.3,0.2-0.5,0.3c-0.8-0.3-2.2-0.2-2.7,0.2c-0.7,0.5-1.2,1.2-1.9,1.6c-0.7,0.4-1.5,0.5-2,1.1
		c-0.9,1-0.4,2.5-0.9,3.7c-0.1,0.4-0.4,0.8-0.6,1.2c-0.1,0.4-0.2,0.9,0.1,1.3c0.3,0.4,0.8,0.5,0.8,1c0,0.4-0.5,0.8-0.5,1.2
		c0,0.4,0.7,0.6,1,1c0.4,0.5,0,1.2,0.3,1.8c0.4,0.5,1.2,0.4,1.9,0.6c1.2,0.3,2,1.6,3.3,1.4c0.4-0.1,0.8-0.4,1.3-0.4
		c0.6-0.1,1.2,0.2,1.8,0.3c1.1,0.1,2.2-0.5,3.1-1.1c0.5-0.3,1-0.7,1.1-1.2c0.1-0.5-0.1-1,0.1-1.4c0.3-0.4,0.8-0.5,1.1-1
		C54.1,78.9,53.3,78.1,53.5,77.4L53.5,77.4L53.5,77.4z"/>
	<path fill-rule="evenodd" clip-rule="evenodd" fill="#455A64" d="M41.5,72.5c0,0,0-0.1,0-0.1c0-0.1,0-0.2,0-0.3
		c0-0.4,0.2-0.7,0.4-1c0.4-0.4,0.9-0.6,1.4-0.7c0.3,0,0.7,0,0.9,0.2c0.1,0.1,0.2,0.3,0.3,0.4c0.1,0.2,0.1,0.4,0,0.5
		c-0.1,0.2-0.2,0.3-0.4,0.4c-0.1,0-0.2,0-0.3,0c-0.1-0.1-0.1-0.1-0.2-0.2c0-0.2,0-0.4,0.1-0.5c0.1-0.1,0.2-0.3,0.4-0.3
		c0.5-0.2,1.1,0,1.4,0.5c0.2,0.3,0.3,0.7,0.2,1c0,0.1,0,0.2-0.1,0.3c0,0.1,0,0.1,0,0.1s0-0.1,0.1-0.4c0-0.3-0.1-0.7-0.3-1
		c-0.1-0.2-0.3-0.3-0.5-0.4c-0.3-0.1-0.5-0.1-0.8,0c-0.1,0.1-0.2,0.1-0.3,0.3c-0.1,0.1-0.1,0.3-0.1,0.4c0,0.1,0.2,0.2,0.3,0.2
		c0.1,0,0.3-0.1,0.3-0.3c0.1-0.3,0-0.6-0.3-0.8c-0.3-0.1-0.5-0.2-0.8-0.2c-0.5,0.1-0.9,0.3-1.4,0.6c-0.3,0.3-0.4,0.5-0.5,0.9
		C41.5,72.2,41.5,72.4,41.5,72.5L41.5,72.5L41.5,72.5z"/>
	<path fill-rule="evenodd" clip-rule="evenodd" fill="#455A64" d="M40.3,77.4c-0.1-0.1-0.1-0.2-0.1-0.3c-0.1-0.7,0.1-1.3,0.5-1.7
		c0.4-0.3,0.9-0.4,1.4-0.3L42,75.1c0-0.2,0-0.4,0-0.5c0.1-0.5,0.4-1,0.8-1.4c0.6-0.4,1.4-0.4,2.1,0c0.1,0,0.1,0.1,0.2,0.1
		c0,0,0.1,0,0,0c-0.1,0-0.2-0.1-0.3-0.1c-0.3-0.1-0.5-0.2-0.8-0.3c-0.4,0-0.8,0.1-1.2,0.3c-0.4,0.3-0.7,0.7-0.8,1.2
		c0,0.2,0,0.4,0,0.5v0.1l-0.1,0c-0.4-0.1-0.9,0-1.3,0.3c-0.3,0.2-0.5,0.5-0.5,0.9c-0.1,0.2-0.1,0.5,0,0.7
		C40.3,77.3,40.3,77.3,40.3,77.4L40.3,77.4L40.3,77.4z"/>
	<path fill-rule="evenodd" clip-rule="evenodd" fill="#455A64" d="M49.1,70.5c0,0-0.2,0-0.5-0.1c-0.7,0-1.4,0.3-1.8,1
		c-0.1,0.2-0.2,0.4-0.2,0.4c0-0.1,0-0.3,0.1-0.4c0.4-0.7,1.1-1,1.9-1C48.8,70.3,48.9,70.4,49.1,70.5L49.1,70.5L49.1,70.5z"/>
	<path fill-rule="evenodd" clip-rule="evenodd" fill="#455A64" d="M52.7,77.1c0,0,0-0.1,0.1-0.2c0.1-0.3,0.1-0.5,0.1-0.8
		c0-0.4-0.2-0.7-0.5-1c-0.3-0.3-0.8-0.5-1.2-0.4c-0.2,0-0.4,0.1-0.6,0.2L50.5,75l0-0.1c0.1-0.4,0-0.8-0.3-1.1
		c-0.2-0.2-0.5-0.4-0.8-0.4c-0.2,0-0.4,0-0.6,0.1c-0.1,0-0.1,0.1-0.2,0.1c0,0,0.1-0.1,0.1-0.1c0.2-0.1,0.4-0.1,0.6-0.1
		c0.3,0,0.7,0.1,0.9,0.4c0.3,0.3,0.4,0.8,0.3,1.2l-0.1-0.1c0.2-0.1,0.4-0.2,0.7-0.2c0.5,0,1,0.1,1.4,0.4c0.5,0.5,0.6,1.2,0.3,1.9
		C52.8,76.9,52.8,77,52.7,77.1C52.7,77.1,52.7,77.1,52.7,77.1L52.7,77.1L52.7,77.1z"/>
	<path fill-rule="evenodd" clip-rule="evenodd" fill="#AB28DD" d="M39.2,100.4c0,0-3.1,0.6-3.6,0.3c-0.5-0.4-2.2-1.5-1.9-3
		c0.3-1.5,3.5-12.4,4.1-13.2c0.7-0.8,1.3-1.5,2.6-1.5c1.4,0,10,1.9,10,1.9s3.6-0.2,4.3,0.3c0.7,0.5,2.4,1.5,2.4,3.4
		c0,1.9-0.4,14.6-0.4,14.6l1,4.7H38.6L39.2,100.4L39.2,100.4z"/>
	<path fill-rule="evenodd" clip-rule="evenodd" fill="#263238" d="M39.2,100.4c0,0-0.3-2.5-0.5-5.7c-0.3-3.1-0.4-5.6-0.4-5.6
		c0,0,0.3,2.5,0.5,5.6C39,97.9,39.2,100.4,39.2,100.4L39.2,100.4L39.2,100.4z"/>
	<path fill-rule="evenodd" clip-rule="evenodd" fill="#FAFAFA" d="M57.2,88.4c-0.1,0-0.1,0-0.2,0l-0.6-0.1l-2.1-0.4
		c-1.8-0.3-4.2-0.7-6.9-1.1c-2.7-0.4-5.2-0.7-6.9-0.8l-2.1-0.2l-0.6-0.1c-0.1,0-0.1,0-0.2,0c0,0,0.1,0,0.2,0l0.6,0
		c0.5,0,1.2,0.1,2.1,0.1c1.8,0.2,4.2,0.4,6.9,0.8c2.7,0.4,5.2,0.8,6.9,1.1c0.9,0.2,1.6,0.3,2.1,0.4l0.5,0.1
		C57,88.3,57.1,88.3,57.2,88.4L57.2,88.4L57.2,88.4z"/>
	<path fill-rule="evenodd" clip-rule="evenodd" fill="#FAFAFA" d="M56.8,92.9c-0.1,0-0.1,0-0.2,0h-0.5c-0.5,0-1.2,0-2-0.1
		c-1.7-0.1-4-0.3-6.5-0.5c-2.6-0.2-4.8-0.5-6.5-0.7c-0.8-0.1-1.5-0.2-2-0.3l-0.5-0.1c-0.1,0-0.1,0-0.2,0c0,0,0.1,0,0.2,0l0.5,0
		l2,0.3c1.6,0.2,3.9,0.4,6.5,0.7c2.5,0.3,4.8,0.4,6.5,0.5l2,0.1l0.5,0C56.7,92.9,56.7,92.9,56.8,92.9L56.8,92.9L56.8,92.9z"/>
	<path fill-rule="evenodd" clip-rule="evenodd" fill="#FAFAFA" d="M57.2,97.3c-0.1,0-0.1,0-0.2,0l-0.5,0.1c-0.4,0-1.1,0.1-1.9,0.2
		c-1.6,0.1-3.8,0.3-6.3,0.3c-2.5,0-4.7-0.2-6.3-0.3c-0.8-0.1-1.5-0.1-1.9-0.2l-0.5-0.1c0,0-0.1,0-0.1,0c0,0,0.1,0,0.2,0l0.5,0
		c0.4,0.1,1.1,0.1,1.9,0.2c1.6,0.1,3.8,0.3,6.3,0.3c2.5,0,4.7-0.1,6.3-0.3c0.8-0.1,1.5-0.1,1.9-0.2l0.5,0
		C57,97.3,57.1,97.3,57.2,97.3L57.2,97.3L57.2,97.3z"/>
	<path fill-rule="evenodd" clip-rule="evenodd" fill="#FAFAFA" d="M56.8,103.7c-0.1,0-0.1,0-0.2,0l-0.5,0l-1.9,0.1
		c-1.6,0-3.8,0.1-6.3,0.1c-2.4,0-4.7,0-6.3,0c-0.8,0-1.5-0.1-1.9-0.1l-0.5,0c0,0-0.1,0-0.1,0c0,0,0.1,0,0.1,0h0.5c0.4,0,1.1,0,1.9,0
		c1.6,0,3.8,0,6.3,0l6.3-0.1h1.9h0.5C56.7,103.7,56.8,103.7,56.8,103.7L56.8,103.7L56.8,103.7z"/>
	<path fill-rule="evenodd" clip-rule="evenodd" fill="#FAFAFA" d="M38.8,94.9c-0.7-0.1-1.4-0.3-2-0.5c-0.7-0.2-1.3-0.4-1.9-0.7
		c0.7,0.1,1.4,0.3,2,0.5C37.5,94.4,38.1,94.6,38.8,94.9L38.8,94.9L38.8,94.9z"/>
	<path fill-rule="evenodd" clip-rule="evenodd" fill="#A36957" d="M11,86.1c-0.1-1.5-1.4-4.1-1.9-6.8c-0.2-1.3-0.4-2.5,0.4-3.6
		c0.7-0.9,1.8-1.5,2.8-2.1c1.6-0.9,3.3-1.8,5.2-1.9c1.2,0,2.5,0.3,3.3,1.2c0.6,0.8,0.8,1.8,0.9,2.8c0.2,1.6,0.3,3.3,0.3,4.9
		c0,0.8,0,1.7-0.3,2.5c-0.2,0.8-0.8,1.6-1.5,2c-0.7,0.4-1.4,0.4-2.1,0.7c-0.7,0.3-1.1,1.2-0.7,1.8l-4.3,1.2L11,86.1L11,86.1z"/>
	<path fill-rule="evenodd" clip-rule="evenodd" fill="#263238" d="M10.1,84c0.4,0.9,1.2,1.6,2.2,2c1,0.3,2.1,0,2.8-0.7
		c0.4-0.4,0.7-1,1-1.6c0.3-0.5,0.6-1.1,1.2-1.3c0.5-0.3,1.4-0.2,1.6,0.3c0.1,0.1,0.1,0.4,0.3,0.5c0.3,0.1,0.5-0.1,0.6-0.3
		c0.1-0.3,0.1-0.5,0-0.7c-0.2-0.9-0.3-1.8-0.3-2.7c0-0.9,0.3-1.9,0.9-2.5c0.5-0.5,1.1-0.8,1.7-1.2c0.5-0.4,1.1-1,1.1-1.6
		c0.1-0.6-0.3-1.2-0.8-1.6c-1-0.9-5-1.6-6.2-1.1c0,0-5.3,2.3-5.6,2.5C10.6,74,8.7,74.7,8.7,77C8.7,79.4,10.1,84,10.1,84L10.1,84
		L10.1,84z"/>
	<path fill-rule="evenodd" clip-rule="evenodd" fill="#A36957" d="M11,86.1c-0.1-1.5-1.4-4.1-1.9-6.8c-0.2-1.3-0.4-2.5,0.4-3.6
		c0.7-0.9,1.8-1.5,2.8-2.1c1.6-0.9,3.3-1.8,5.2-1.9c1.2,0,2.5,0.3,3.3,1.2c0.6,0.8,0.8,1.8,0.9,2.8c0.2,1.6,0.3,3.3,0.3,4.9
		c0,0.8,0,1.7-0.3,2.5c-0.2,0.8-0.8,1.6-1.5,2c-0.7,0.4-1.4,0.4-2.1,0.7c-0.7,0.3-1.1,1.2-0.7,1.8l-4.3,1.2L11,86.1L11,86.1z"/>
	<path fill-rule="evenodd" clip-rule="evenodd" fill="#622E78" d="M23.6,72.3c-0.3-0.3-0.7-0.3-0.9,0c0,0,0,0,0,0
		c0.4-0.5,0.3-1.2-0.2-1.5c-0.5-0.3-1.2-0.3-1.5,0.2c0.2-0.5,0-1-0.4-1.4c-0.4-0.3-1-0.4-1.5-0.2c-0.5,0.1-0.9,0.4-1.4,0.7
		c0-0.4-0.2-0.7-0.5-0.8c-0.3-0.1-0.7-0.2-1-0.2c-1.4,0.1-2.6,0.8-3.2,2c-0.9-0.4-2,0.1-2.4,1c-0.1,0.4-0.1,0.9,0,1.4
		c-0.7,0.1-1.2,0.8-1.2,1.5c-0.4,0.6-0.5,1.3-0.5,2c0,2.3,1.4,6.9,1.4,6.9c0.4,0.9,1.2,1.6,2.2,2c1,0.3,2.1,0,2.8-0.7
		c0.4-0.4,0.7-1,1-1.6c0.3-0.5,0.7-1.1,1.2-1.3c0.5-0.3,1.2-0.1,1.8,0.1c0.5,0.1,0.5-0.2,0.5-0.6l0-2.4c0-0.9,0.3-1.9,0.9-2.5
		c0.5-0.5,1.1-0.8,1.7-1.2c0.6-0.4,1.1-1,1.2-1.6c0-0.1,0-0.2,0-0.3c0.1-0.1,0.2-0.3,0.3-0.4C23.8,72.9,23.8,72.5,23.6,72.3
		L23.6,72.3L23.6,72.3z"/>
	<path fill-rule="evenodd" clip-rule="evenodd" fill="#455A64" d="M16.4,76.2c0,0.1,0,0.1-0.1,0.2c-0.3,0.6-0.8,1-1.4,1
		c-0.5,0-0.9-0.2-1.2-0.5h0.1c-0.1,0.1-0.2,0.3-0.4,0.4c-0.4,0.3-1,0.5-1.5,0.4c-0.4-0.1-0.8-0.3-1.1-0.7c-0.2-0.2-0.3-0.5-0.4-0.8
		c0-0.1,0-0.1,0-0.2s0-0.1,0-0.1s0,0.1,0.1,0.3c0.1,0.3,0.2,0.5,0.4,0.7c0.3,0.3,0.7,0.5,1.1,0.6c0.5,0.1,1,0,1.4-0.3
		c0.1-0.1,0.3-0.3,0.4-0.4l0-0.1l0,0.1c0.3,0.3,0.7,0.5,1.1,0.5c0.4,0,0.7-0.1,1-0.3c0.2-0.1,0.3-0.3,0.4-0.5
		C16.4,76.3,16.4,76.2,16.4,76.2L16.4,76.2L16.4,76.2z"/>
	<path fill-rule="evenodd" clip-rule="evenodd" fill="#455A64" d="M19.8,74.6c0.1,0.1,0.1,0.3,0.1,0.4c0,0.2-0.1,0.3-0.3,0.4
		c-0.1,0.1-0.3,0.2-0.5,0.3c-0.4,0-0.7,0-1-0.1c-0.1-0.1-0.3-0.1-0.4-0.2c0.1,0,0.3,0.1,0.4,0.1c0.3,0.1,0.7,0.1,1,0.1
		c0.2,0,0.3-0.1,0.4-0.3c0.1-0.1,0.2-0.2,0.3-0.4C19.8,74.9,19.9,74.7,19.8,74.6L19.8,74.6L19.8,74.6z"/>
	<path fill-rule="evenodd" clip-rule="evenodd" fill="#455A64" d="M22.3,73.8c0,0.1,0,0.3-0.1,0.4c-0.3,0.7-1,1.1-1.7,0.8
		c-0.1,0-0.3-0.1-0.4-0.2c0,0,0.1,0.1,0.4,0.1c0.3,0.1,0.7,0,0.9-0.1c0.3-0.1,0.5-0.4,0.7-0.7C22.3,73.9,22.3,73.8,22.3,73.8
		L22.3,73.8L22.3,73.8z"/>
	<path fill-rule="evenodd" clip-rule="evenodd" fill="#455A64" d="M19.3,72.1c-0.2-0.1-0.5-0.3-0.7-0.3c-0.7-0.1-1.3,0.2-1.6,0.8
		c-0.1,0.2-0.1,0.4-0.1,0.5h-0.1c0-0.3-0.2-0.5-0.5-0.5c-0.2,0-0.4,0-0.6,0.1c-0.2,0.1-0.3,0.3-0.5,0.4c0,0,0-0.1,0.1-0.1
		c0.1-0.1,0.2-0.2,0.3-0.3c0.2-0.1,0.5-0.2,0.7-0.2c0.1,0,0.3,0.1,0.4,0.2c0.1,0.1,0.2,0.3,0.2,0.5l-0.1,0c0-0.6,0.4-1.1,1-1.4
		c0.3-0.1,0.6-0.1,0.9-0.1c0.2,0.1,0.4,0.1,0.5,0.3C19.2,72,19.3,72.1,19.3,72.1L19.3,72.1L19.3,72.1z"/>
	<path fill-rule="evenodd" clip-rule="evenodd" fill="#455A64" d="M17,70.2c0,0-0.1,0-0.3,0.1c-0.2,0.1-0.4,0.2-0.5,0.4
		c-0.1,0.2-0.3,0.4-0.3,0.7c0,0.1,0,0.2,0,0.3c0,0-0.1-0.1-0.1-0.3c0-0.5,0.3-1,0.9-1.1C16.8,70.2,17,70.2,17,70.2L17,70.2L17,70.2z
		"/>
	<path fill-rule="evenodd" clip-rule="evenodd" fill="#455A64" d="M12,73.2c0,0,0-0.2,0.2-0.4c0.1-0.1,0.3-0.1,0.5-0.2
		c0.2,0,0.4,0,0.6,0c0.3,0.1,0.6,0.4,0.9,0.6c0.2,0.2,0.3,0.3,0.3,0.4c-0.1-0.1-0.2-0.2-0.3-0.3c-0.3-0.3-0.5-0.4-0.9-0.5
		c-0.1-0.1-0.3-0.1-0.5-0.1c-0.1,0-0.3,0.1-0.4,0.1C12.1,73,12,73.2,12,73.2L12,73.2L12,73.2z"/>
	<path fill-rule="evenodd" clip-rule="evenodd" fill="#455A64" d="M14.6,75.2c-0.2-0.5-0.1-1,0.4-1.3c-0.1,0.2-0.2,0.4-0.3,0.6
		C14.6,74.7,14.6,75,14.6,75.2L14.6,75.2L14.6,75.2z"/>
	<path fill-rule="evenodd" clip-rule="evenodd" fill="#A36957" d="M28.7,84.9l-3.7,1.2l0.7,6.7l-0.3,0.5l-2.7,4.5
		c0,0.1,2.7,0.7,3.8,1c1.3,0.3,4.8,0,4.3-4.4C30.5,91.3,28.7,84.9,28.7,84.9L28.7,84.9L28.7,84.9z"/>
	<path fill-rule="evenodd" clip-rule="evenodd" fill="#A36957" d="M24.8,80.1c-0.6,0.3-1,0.8-1,1.5c0,0.1,0,0.2,0,0.3
		c0.1,0.1,0.3,0.2,0.4,0.1c0.1-0.1,0.3-0.2,0.4-0.3L24.8,80.1L24.8,80.1z"/>
	<path fill-rule="evenodd" clip-rule="evenodd" fill="#7C3B29" d="M24.7,81.6c0,0,0,0-0.1,0.1c-0.1,0.1-0.1,0.2-0.3,0.3
		c-0.1,0-0.1,0.1-0.3,0c-0.1,0-0.2,0-0.3-0.1c-0.1-0.1-0.1-0.2-0.1-0.3c0-0.1,0-0.2,0-0.3c0.1-0.4,0.3-0.7,0.6-1
		c0.1-0.1,0.3-0.2,0.4-0.2c0,0-0.2,0.1-0.4,0.3c-0.3,0.3-0.4,0.6-0.5,1c0,0.1,0,0.2,0,0.3c0,0.1,0,0.2,0,0.3
		c0.1,0.1,0.3,0.1,0.4,0.1c0.1-0.1,0.2-0.1,0.3-0.2C24.6,81.7,24.7,81.6,24.7,81.6L24.7,81.6L24.7,81.6z"/>
	<path fill-rule="evenodd" clip-rule="evenodd" fill="#A36957" d="M26.9,80.1c0,0-1.8,0.7-2,1.3c-0.2,0.6-0.6,2.7-0.6,2.7l0.8,2.1
		l3.6-0.7c0,0,0.5-4.3,0.6-4.4c0,0,1.3-3.6,1.2-3.9c0-0.4-0.3-0.5-0.8-0.1c-0.4,0.5-1.4,2.5-1.4,2.5L26.9,80.1L26.9,80.1z"/>
	<path fill-rule="evenodd" clip-rule="evenodd" fill="#A36957" d="M26.6,79.2c-0.4,0-0.7,0-1.1,0.1c-0.3,0.2-0.5,0.4-0.6,0.8
		c-0.1,0.4-0.2,0.7-0.2,1c0,0.3,0,0.6,0.2,0.8c0.1,0.1,0.2,0.1,0.4,0c0.1-0.1,0.2-0.2,0.2-0.3L26.6,79.2L26.6,79.2z"/>
	<path fill-rule="evenodd" clip-rule="evenodd" fill="#7C3B29" d="M25.5,81.7c0,0,0,0.1-0.1,0.2c0,0-0.1,0.1-0.2,0.1
		c-0.1,0-0.2,0-0.3,0c-0.1-0.1-0.2-0.2-0.3-0.3c0-0.1,0-0.3,0-0.4c0-0.3,0.1-0.6,0.1-0.9c0.1-0.3,0.2-0.6,0.4-0.8
		c0.2-0.2,0.4-0.3,0.7-0.3c0.1,0,0.3,0,0.5,0c0.1,0,0.1,0,0.2,0c0,0-0.3,0-0.7,0.1c-0.3,0-0.5,0.1-0.7,0.3c-0.2,0.2-0.3,0.5-0.4,0.8
		c-0.1,0.3-0.1,0.6-0.1,0.9c0,0.1,0,0.3,0,0.4c0,0.1,0.1,0.2,0.2,0.2c0.1,0.1,0.3,0,0.4-0.1C25.4,81.8,25.4,81.8,25.5,81.7
		L25.5,81.7L25.5,81.7z"/>
	<path fill-rule="evenodd" clip-rule="evenodd" fill="#A36957" d="M28.2,79.6c-0.2-0.3-0.5-0.4-0.8-0.5c-0.4,0-0.7,0.1-1,0.3
		c-0.3,0.3-0.4,0.5-0.6,0.9c-0.1,0.3-0.3,0.5-0.4,0.8c-0.1,0.1-0.1,0.3-0.1,0.5c0,0.1,0,0.3,0.1,0.4c0.2,0.2,0.4,0.2,0.7,0.1
		c0.2-0.1,0.4-0.3,0.4-0.5L28.2,79.6L28.2,79.6z"/>
	<path fill-rule="evenodd" clip-rule="evenodd" fill="#7C3B29" d="M26.6,81.5c0,0.1,0,0.2-0.1,0.3c-0.1,0.2-0.3,0.4-0.5,0.4
		c-0.1,0-0.3,0-0.5-0.1c-0.1-0.1-0.1-0.3-0.1-0.5c0-0.2,0.1-0.4,0.2-0.6c0.1-0.2,0.2-0.4,0.3-0.6c0.1-0.4,0.4-0.7,0.7-1
		c0.3-0.3,0.6-0.3,1-0.3c0.2,0.1,0.4,0.2,0.6,0.4c0.1,0.1,0.2,0.2,0.1,0.2c0,0-0.1-0.1-0.2-0.1c-0.1-0.1-0.4-0.3-0.5-0.3
		c-0.3-0.1-0.7,0-0.9,0.3c-0.3,0.3-0.5,0.6-0.7,1L25.7,81c-0.1,0.2-0.2,0.4-0.2,0.5c0,0.1,0,0.3,0.1,0.4c0.1,0.1,0.2,0.1,0.4,0.1
		c0.2,0,0.4-0.1,0.5-0.4C26.6,81.6,26.6,81.5,26.6,81.5L26.6,81.5L26.6,81.5z"/>
	<path fill-rule="evenodd" clip-rule="evenodd" fill="#A36957" d="M27,82.9l-0.3-1.2c-0.4-0.1-0.9-0.3-1.2-0.5
		c-0.1-0.3,0-0.5,0.5-0.6c0.5-0.1,1.9,0.1,2,0.1c0.5,0.3,0.6,1.1,0.7,1.7L27,82.9L27,82.9z"/>
	<path fill-rule="evenodd" clip-rule="evenodd" fill="#7C3B29" d="M28.7,82.3c0-0.1,0-0.2,0-0.3c0-0.3-0.1-0.5-0.2-0.8
		c0-0.1-0.1-0.3-0.3-0.4c-0.1-0.1-0.1-0.1-0.3-0.1c-0.1,0-0.2,0-0.3,0c-0.5-0.1-0.9-0.1-1.5-0.1c-0.2,0-0.3,0.1-0.5,0.2
		c0,0-0.1,0.1-0.1,0.2c0,0.1,0,0.1,0,0.2v0c0.4,0.3,0.8,0.5,1.2,0.5h0v0c0.1,0.4,0.1,0.7,0.1,0.9c0,0.1,0,0.2,0,0.4
		c0-0.1-0.1-0.2-0.1-0.3c-0.1-0.3-0.1-0.5-0.2-0.9l0,0c-0.5,0-0.9-0.2-1.3-0.5l0,0v0c0-0.1,0-0.2,0-0.3c0-0.1,0.1-0.2,0.2-0.3
		c0.1-0.1,0.4-0.2,0.6-0.2c0.5,0,1,0,1.5,0.1c0.1,0,0.2,0,0.3,0.1c0.1,0,0.2,0.1,0.3,0.1c0.1,0.1,0.2,0.3,0.3,0.5
		c0.1,0.3,0.1,0.5,0.1,0.8C28.8,82.1,28.8,82.2,28.7,82.3L28.7,82.3L28.7,82.3z"/>
	<path fill-rule="evenodd" clip-rule="evenodd" fill="#7C3B29" d="M26.6,82.4c-0.1,0-0.2,0-0.3,0c-0.5,0.1-1,0.4-1.2,0.8
		c-0.1,0.2-0.1,0.3-0.1,0.3c0,0,0-0.1,0.1-0.3c0.2-0.5,0.7-0.9,1.3-0.9C26.5,82.4,26.6,82.4,26.6,82.4L26.6,82.4L26.6,82.4z"/>
	<path fill-rule="evenodd" clip-rule="evenodd" fill="#7C3B29" d="M28,93.9c-0.4-0.1-0.8-0.3-1.2-0.5c-0.4-0.1-0.8-0.3-1.1-0.5
		c0.4,0,0.8,0.2,1.2,0.4C27.2,93.5,27.6,93.7,28,93.9L28,93.9L28,93.9z"/>
	<path fill-rule="evenodd" clip-rule="evenodd" fill="#36CFE3" d="M15.7,86.8c0.2-0.1,3.8,0.6,4.9,1.1c0.6,0.3,5.6,4.4,5.6,4.4
		l-3.7,6.1l-2.4-0.9l0,10.6l-15-0.1L5.3,91c0,0,1.1-4.4,3-5C10.1,85.5,15.7,86.8,15.7,86.8L15.7,86.8L15.7,86.8z"/>
	<path fill-rule="evenodd" clip-rule="evenodd" fill="#263238" d="M19.8,97.5c-0.1,0-0.1,0-0.1,0c-0.1,0-0.2,0-0.3-0.1
		c-0.4-0.1-0.8-0.3-1.2-0.6c-0.5-0.3-1-0.8-1.4-1.4c-0.9-1.4-1.1-3.1-0.4-4.6c0.3-0.6,0.7-1.1,1.1-1.6c0.3-0.3,0.7-0.5,1.1-0.8
		c0.1,0,0.2-0.1,0.3-0.1c0,0,0.1,0,0.1,0c-0.5,0.3-1.1,0.6-1.5,1c-0.4,0.4-0.8,1-1.1,1.6c-0.6,1.4-0.5,3.1,0.4,4.5
		c0.3,0.5,0.8,1,1.3,1.4C18.7,97.1,19.2,97.3,19.8,97.5L19.8,97.5L19.8,97.5z"/>
	<path fill-rule="evenodd" clip-rule="evenodd" fill="#263238" d="M17.2,107.3c0,0,0-2.2,0.2-4.8c0.1-2.6,0.3-4.7,0.3-4.7
		c0,0,0,2.1-0.2,4.7C17.4,105.2,17.2,107.3,17.2,107.3L17.2,107.3L17.2,107.3z"/>
	<path fill-rule="evenodd" clip-rule="evenodd" fill="#263238" d="M13.3,101c-0.1,0.1-0.1,0.1-0.2,0.2c-0.1,0.1-0.4,0.3-0.6,0.5
		c-0.5,0.5-1.3,1.1-2.2,1.7c-0.8,0.7-1.6,1.2-2.3,1.6c-0.3,0.2-0.5,0.3-0.7,0.4c-0.1,0-0.2,0.1-0.3,0.1c0.1-0.1,0.1-0.1,0.2-0.2
		L8,105c0.6-0.4,1.4-1,2.2-1.6c0.9-0.6,1.6-1.2,2.2-1.7l0.6-0.5C13.1,101.1,13.2,101,13.3,101L13.3,101L13.3,101z"/>
	<path fill-rule="evenodd" clip-rule="evenodd" fill="#FAFAFA" d="M7.4,90.8c0,0,0.3-0.5,0.5-1.1c0.3-0.5,0.5-1,0.5-1
		c0,0.4-0.2,0.8-0.4,1.1C7.9,90.2,7.7,90.5,7.4,90.8L7.4,90.8L7.4,90.8z"/>
	<path fill-rule="evenodd" clip-rule="evenodd" fill="#FAFAFA" d="M8.4,96.4c-0.3-0.3-0.5-0.6-0.8-1c-0.2-0.3-0.4-0.7-0.5-1.1
		c0.2,0.3,0.4,0.7,0.6,1C8,95.7,8.2,96,8.4,96.4L8.4,96.4L8.4,96.4z"/>
	<path fill-rule="evenodd" clip-rule="evenodd" fill="#FAFAFA" d="M12.5,91.3c-0.3,0.4-0.5,0.7-0.8,1c-0.3,0.3-0.6,0.7-0.9,1
		c0.2-0.4,0.5-0.7,0.8-1.1S12.1,91.6,12.5,91.3L12.5,91.3L12.5,91.3z"/>
	<path fill-rule="evenodd" clip-rule="evenodd" fill="#FAFAFA" d="M13.7,98c0,0,0.2-0.7,0.5-1.4c0.3-0.8,0.5-1.4,0.5-1.4
		C14.6,96.1,14.2,97.1,13.7,98L13.7,98L13.7,98z"/>
	<path fill-rule="evenodd" clip-rule="evenodd" fill="#FAFAFA" d="M11.1,100.9c-0.1-0.4-0.1-0.7-0.1-1.1c0-0.4,0-0.8,0-1.1
		c0.1,0.3,0.1,0.7,0.1,1.1C11.2,100.1,11.2,100.5,11.1,100.9L11.1,100.9L11.1,100.9z"/>
	<path fill-rule="evenodd" clip-rule="evenodd" fill="#FAFAFA" d="M8.7,104.2c-0.3-0.3-0.6-0.7-0.9-1c-0.3-0.4-0.5-0.7-0.8-1.1
		c0.3,0.3,0.6,0.6,0.8,1C8.2,103.4,8.4,103.8,8.7,104.2L8.7,104.2L8.7,104.2z"/>
	<path fill-rule="evenodd" clip-rule="evenodd" fill="#FAFAFA" d="M12,106.3c-0.1-0.6-0.1-1.2-0.1-1.7C12,105.2,12,105.7,12,106.3
		L12,106.3L12,106.3z"/>
	<path fill-rule="evenodd" clip-rule="evenodd" fill="#FAFAFA" d="M15.7,104.8c-0.3-0.3-0.5-0.6-0.7-1c-0.3-0.3-0.4-0.7-0.6-1
		c0.3,0.3,0.5,0.6,0.7,0.9C15.3,104.1,15.5,104.4,15.7,104.8L15.7,104.8L15.7,104.8z"/>
	<path fill-rule="evenodd" clip-rule="evenodd" fill="#FAFAFA" d="M16.9,99.7c-0.2,0-0.4,0-0.6,0c-0.2,0-0.4,0-0.5-0.1
		c0.2,0,0.4,0,0.5,0C16.6,99.6,16.8,99.6,16.9,99.7L16.9,99.7L16.9,99.7z"/>
	<path fill-rule="evenodd" clip-rule="evenodd" fill="#FAFAFA" d="M19.6,102.6c-0.3-0.3-0.5-0.7-0.7-1c-0.2-0.3-0.4-0.7-0.5-1
		c0.3,0.3,0.5,0.6,0.7,1C19.2,101.8,19.4,102.2,19.6,102.6L19.6,102.6L19.6,102.6z"/>
	<path fill-rule="evenodd" clip-rule="evenodd" fill="#FAFAFA" d="M19.5,104.9c-0.1,0.3-0.2,0.6-0.3,0.9c-0.1,0.3-0.3,0.5-0.4,0.8
		c0-0.3,0.1-0.6,0.3-0.9C19.1,105.4,19.3,105.2,19.5,104.9L19.5,104.9L19.5,104.9z"/>
	<path fill-rule="evenodd" clip-rule="evenodd" fill="#FAFAFA" d="M17.9,94.1c-0.1-0.3-0.3-0.7-0.3-1c0-0.4,0-0.7,0-1.1
		c0,0,0,0.5,0.1,1C17.8,93.6,17.9,94.1,17.9,94.1L17.9,94.1L17.9,94.1z"/>
	<path fill-rule="evenodd" clip-rule="evenodd" fill="#FAFAFA" d="M19.3,90.4c0.2-0.2,0.4-0.3,0.7-0.4c0.2-0.1,0.5-0.2,0.7-0.2
		c-0.2,0.1-0.4,0.3-0.7,0.4C19.8,90.2,19.5,90.3,19.3,90.4L19.3,90.4L19.3,90.4z"/>
	<path fill-rule="evenodd" clip-rule="evenodd" fill="#FAFAFA" d="M21.1,93.7c-0.2-0.3-0.4-0.5-0.5-0.8c-0.2-0.3-0.3-0.6-0.4-0.9
		c0.2,0.2,0.4,0.5,0.5,0.8C20.9,93.1,21,93.4,21.1,93.7L21.1,93.7L21.1,93.7z"/>
	<path fill-rule="evenodd" clip-rule="evenodd" fill="#FAFAFA" d="M23.6,92.6c-0.3-0.3-0.4-0.5-0.6-0.8c-0.2-0.3-0.3-0.5-0.4-0.8
		c0.2,0.2,0.4,0.5,0.5,0.8C23.3,92,23.4,92.2,23.6,92.6L23.6,92.6L23.6,92.6z"/>
	<path fill-rule="evenodd" clip-rule="evenodd" fill="#FAFAFA" d="M22.9,95.6c-0.3,0.1-0.7,0.3-1,0.3c-0.3,0.1-0.7,0.2-1,0.3
		c0.3-0.2,0.6-0.3,0.9-0.4C22.2,95.7,22.5,95.6,22.9,95.6L22.9,95.6L22.9,95.6z"/>
	<path fill-rule="evenodd" clip-rule="evenodd" fill="#FAFAFA" d="M15.1,89c-0.3-0.1-0.7-0.3-0.9-0.5c-0.3-0.2-0.5-0.4-0.7-0.7
		c0,0,0.4,0.3,0.8,0.6C14.7,88.7,15.1,89,15.1,89L15.1,89L15.1,89z"/>
	<path fill-rule="evenodd" clip-rule="evenodd" fill="#FAFAFA" d="M9.7,87.1c-0.3,0-0.5,0-0.8-0.1c-0.3,0-0.5-0.2-0.7-0.3
		c0.2,0,0.4,0.1,0.7,0.2C9.2,86.9,9.4,87,9.7,87.1L9.7,87.1L9.7,87.1z"/>
</g>
</svg>
