<?xml version="1.0" encoding="iso-8859-1"?>
<!-- Generator: Adobe Illustrator 17.1.0, SVG Export Plug-In . SVG Version: 6.00 Build 0)  -->
<!DOCTYPE svg PUBLIC "-//W3C//DTD SVG 1.1//EN" "http://www.w3.org/Graphics/SVG/1.1/DTD/svg11.dtd">
<svg version="1.1" id="Layer_1" xmlns="http://www.w3.org/2000/svg" xmlns:xlink="http://www.w3.org/1999/xlink" x="0px" y="0px"
	 width="2550.48px" height="860.81px" viewBox="0 0 2550.48 860.81" style="enable-background:new 0 0 2550.48 860.81;"
	 xml:space="preserve">
<g>
	<polygon style="fill:#FEEBE7;" points="533.01,301.39 681.89,298.63 431,0.87 	"/>
	<polygon style="fill:#FBCFC8;" points="215.95,146.99 323.48,290.36 425.49,0.87 	"/>
	<polygon style="fill-rule:evenodd;clip-rule:evenodd;fill:#E6ECF5;" points="6.43,301.39 78.11,552.27 249.05,488.87 	"/>
	<path style="fill:#F8ABAD;" d="M195.29,340.08l425.08,296.88l2.87-4.11L203.39,339.64L195.29,340.08z M210.98,339.21l414.95,289.8
		l2.86-4.1L219.09,338.76L210.98,339.21z M226.64,338.35l404.83,282.72l2.86-4.1l-399.6-279.08L226.64,338.35z M242.29,337.47
		l394.72,275.67l2.87-4.1L250.39,337.02L242.29,337.47z M257.94,336.6l384.61,268.6l2.87-4.1L266.04,336.15L257.94,336.6z
		 M273.6,335.72l374.49,261.55l2.87-4.11L281.7,335.27L273.6,335.72z M289.25,334.86l364.38,254.47l2.87-4.1L297.34,334.41
		L289.25,334.86z M304.91,333.98l354.26,247.42l2.88-4.1L313,333.54L304.91,333.98z M320.56,333.12l344.16,240.35l2.86-4.1
		L328.65,332.66L320.56,333.12z M336.21,332.24l334.05,233.3l2.87-4.11L344.31,331.79L336.21,332.24z M351.87,331.37L675.8,557.6
		l2.86-4.09L359.97,330.92L351.87,331.37z M367.52,330.5l313.82,219.17l2.87-4.1L375.62,330.05L367.52,330.5z M383.18,329.63
		l303.7,212.11l2.87-4.11L391.28,329.18L383.18,329.63z M398.83,328.76L692.42,533.8l2.87-4.11L406.93,328.31L398.83,328.76z
		 M414.49,327.89l283.47,197.98l2.87-4.11L422.58,327.45L414.49,327.89z M430.14,327.02L703.5,517.94l2.88-4.1L438.23,326.56
		L430.14,327.02z M445.79,326.15L709.04,510l2.86-4.1L453.89,325.7L445.79,326.15z M461.45,325.27l253.14,176.79l2.87-4.1
		L469.54,324.82L461.45,325.27z M477.1,324.41l243.02,169.73l2.87-4.11L485.2,323.96L477.1,324.41z M492.76,323.53L725.67,486.2
		l2.86-4.1L500.86,323.09L492.76,323.53z M508.41,322.66l222.79,155.6l2.87-4.11L516.5,322.21L508.41,322.66z M524.07,321.8
		l212.68,148.53l2.87-4.1L532.17,321.34L524.07,321.8z M539.71,320.92L742.29,462.4l2.87-4.11L547.82,320.47L539.71,320.92z
		 M555.37,320.05l192.45,134.42l2.87-4.11L563.47,319.6L555.37,320.05z M571.02,319.18l182.35,127.34l2.87-4.09l-177.11-123.7
		L571.02,319.18z M586.68,318.31L758.9,438.6l2.88-4.11L594.78,317.86L586.68,318.31z M602.34,317.44l162.11,113.22l2.87-4.11
		L610.43,317L602.34,317.44z M617.99,316.57L770,422.73l2.86-4.11L626.08,316.11L617.99,316.57z M633.65,315.7l141.89,99.1
		l2.86-4.11l-136.66-95.44L633.65,315.7z M649.3,314.83l131.78,92.03l2.86-4.11l-126.55-88.37L649.3,314.83z M664.96,313.96
		l121.66,84.97l2.87-4.11L673.05,313.5L664.96,313.96z M680.6,313.08L792.15,391l2.87-4.11l-106.31-74.26L680.6,313.08z
		 M696.26,312.21l101.43,70.85l2.87-4.12l-96.21-67.18L696.26,312.21z M711.91,311.34l91.32,63.79l2.87-4.11L720,310.9
		L711.91,311.34z M727.56,310.47l81.22,56.72l2.87-4.11l-75.98-53.06L727.56,310.47z M743.22,309.6l71.1,49.67l2.86-4.11l-65.86-46
		L743.22,309.6z M758.87,308.73l60.99,42.59l2.86-4.1l-55.76-38.94L758.87,308.73z M774.53,307.86l50.88,35.53l2.86-4.11
		l-45.64-31.87L774.53,307.86z M790.19,306.99l40.75,28.47l2.87-4.11l-35.52-24.81L790.19,306.99z M805.84,306.11l30.65,21.41
		l2.87-4.11l-25.42-17.75L805.84,306.11z M821.49,305.25l20.54,14.34l2.87-4.11l-15.3-10.69L821.49,305.25z M837.15,304.37
		l10.42,7.28l2.87-4.11l-5.19-3.62L837.15,304.37z M852.8,303.51l0.3,0.22l0.17-0.24L852.8,303.51z"/>
	<path style="fill-rule:evenodd;clip-rule:evenodd;fill:#9DB9D9;" d="M661.5,798.9L250.13,525.75l-2.76,4.16l406.04,269.63
		L661.5,798.9z M692.79,796.42L260.86,509.61l-2.77,4.16l426.62,283.29L692.79,796.42z M645.87,800.14L244.79,533.8l-2.77,4.18
		l395.77,262.79L645.87,800.14z M67.59,845.94L46.72,832.1l-2.77,4.16l15.55,10.32L67.59,845.94z M51.95,847.18l-10.59-7.03
		l-2.77,4.18l5.27,3.5L51.95,847.18z M36.32,848.42l-0.31-0.21l-0.16,0.24L36.32,848.42z M130.09,840.99l-61.96-41.15l-2.77,4.17
		l56.65,37.62L130.09,840.99z M114.47,842.23l-51.69-34.32l-2.77,4.17l46.38,30.79L114.47,842.23z M98.84,843.46l-41.42-27.49
		l-2.77,4.17l36.1,23.97L98.84,843.46z M83.21,844.7l-31.14-20.68l-2.77,4.17l25.83,17.15L83.21,844.7z M192.62,836.05L89.55,767.59
		l-2.77,4.17l97.76,64.91L192.62,836.05z M176.99,837.28l-92.79-61.62l-2.77,4.17l87.48,58.09L176.99,837.28z M161.36,838.52
		l-82.52-54.8l-2.77,4.17l77.2,51.26L161.36,838.52z M145.73,839.76l-72.24-47.97l-2.77,4.16l66.93,44.44L145.73,839.76z
		 M255.14,831.09l-144.18-95.74l-2.77,4.17l138.87,92.21L255.14,831.09z M239.5,832.32l-133.9-88.91l-2.77,4.17l128.58,85.38
		L239.5,832.32z M223.87,833.57l-123.62-82.09l-2.77,4.17l118.3,78.57L223.87,833.57z M208.24,834.81L94.9,759.54l-2.77,4.17
		l108.03,71.73L208.24,834.81z M317.65,826.14L132.37,703.11l-2.77,4.17l179.97,119.5L317.65,826.14z M302.02,827.37L127.01,711.16
		l-2.77,4.17l169.69,112.68L302.02,827.37z M286.39,828.61L121.67,719.23l-2.77,4.17l159.42,105.86L286.39,828.61z M270.76,829.85
		L116.31,727.29l-2.77,4.17l149.15,99.04L270.76,829.85z M380.17,821.19L153.78,670.86l-2.77,4.16l221.07,146.8L380.17,821.19z
		 M364.54,822.42l-216.11-143.5l-2.77,4.16l210.8,139.98L364.54,822.42z M348.91,823.66L143.08,686.98l-2.77,4.17L340.83,824.3
		L348.91,823.66z M333.28,824.89L137.72,695.04l-2.77,4.18l190.24,126.32L333.28,824.89z M442.69,816.23L175.19,638.61l-2.77,4.17
		L434.6,816.87L442.69,816.23z M427.05,817.47L169.84,646.67l-2.77,4.17l251.9,167.27L427.05,817.47z M411.43,818.71L164.49,654.73
		l-2.77,4.17l241.63,160.45L411.43,818.71z M395.8,819.95L159.13,662.79l-2.77,4.17l231.35,153.62L395.8,819.95z M505.2,811.28
		L196.6,606.36l-2.77,4.17l303.28,201.39L505.2,811.28z M489.57,812.51L191.25,614.43l-2.77,4.17l293.01,194.56L489.57,812.51z
		 M473.94,813.75L185.9,622.48l-2.77,4.18L465.86,814.4L473.94,813.75z M458.31,814.99L180.55,630.55l-2.77,4.16l272.45,180.91
		L458.31,814.99z M567.72,806.33l-349.7-232.21l-2.77,4.17l344.4,228.68L567.72,806.33z M552.09,807.57L212.67,582.18l-2.77,4.17
		L544,808.21L552.09,807.57z M536.46,808.8L207.31,590.24l-2.77,4.17l323.83,215.04L536.46,808.8z M520.84,810.04L201.96,598.3
		l-2.77,4.17l313.56,208.22L520.84,810.04z M630.24,801.38L239.43,541.87l-2.77,4.17l385.49,255.97L630.24,801.38z M614.61,802.62
		L234.08,549.93l-2.77,4.17l375.22,249.15L614.61,802.62z M598.99,803.85L228.72,558l-2.77,4.17L590.9,804.49L598.99,803.85z
		 M583.35,805.09L223.38,566.05l-2.77,4.17l354.67,235.51L583.35,805.09z M677.13,797.66L255.49,517.68l-2.77,4.17L669.04,798.3
		L677.13,797.66z"/>
	<path style="fill-rule:evenodd;clip-rule:evenodd;fill:#F8ABAD;" d="M519.41,675.91L382.02,201.62l-4.81,1.39l135.62,468.16
		L519.41,675.91z M544.9,694.24L400.63,196.22l-4.8,1.39L538.31,689.5L544.9,694.24z M506.69,666.75L372.73,204.31l-4.8,1.39
		L500.1,662.01L506.69,666.75z M35.78,327.98l-6.97-24.05L24,305.32l5.2,17.93L35.78,327.98z M23.05,318.82l-3.53-12.2l-4.8,1.39
		l1.76,6.08L23.05,318.82z M10.33,309.67l-0.11-0.36l-0.28,0.08L10.33,309.67z M86.69,364.6l-20.7-71.45l-4.81,1.4l18.93,65.31
		L86.69,364.6z M73.96,355.45l-17.27-59.6l-4.81,1.39l15.5,53.47L73.96,355.45z M61.23,346.3L47.4,298.55l-4.81,1.39l12.06,41.62
		L61.23,346.3z M48.51,337.14l-10.4-35.9l-4.81,1.39l8.63,29.77L48.51,337.14z M137.6,401.23l-34.42-118.84l-4.82,1.39l32.66,112.71
		L137.6,401.23z M124.87,392.08L93.88,285.09l-4.81,1.39l29.22,100.86L124.87,392.08z M112.14,382.93l-27.56-95.15l-4.81,1.39
		l25.78,89.02L112.14,382.93z M99.41,373.76l-24.13-83.3l-4.81,1.39l22.36,77.17L99.41,373.76z M188.5,437.86l-48.15-166.24
		l-4.8,1.4l46.38,160.11L188.5,437.86z M175.78,428.7l-44.72-154.39l-4.81,1.4l42.95,148.26L175.78,428.7z M163.05,419.54
		L121.75,277l-4.8,1.4l39.52,136.41L163.05,419.54z M150.32,410.38L112.46,279.7l-4.81,1.4l36.08,124.56L150.32,410.38z
		 M239.41,474.48l-61.89-213.63l-4.8,1.39l60.11,207.5L239.41,474.48z M226.68,465.33l-58.44-201.79l-4.81,1.39l56.68,195.66
		L226.68,465.33z M213.96,456.16l-55.02-189.93l-4.81,1.39l53.24,183.8L213.96,456.16z M201.23,447.01l-51.59-178.08l-4.8,1.39
		l49.81,171.95L201.23,447.01z M290.33,511.11l-75.61-261.03l-4.81,1.39l73.83,254.9L290.33,511.11z M277.6,501.94l-72.18-249.17
		l-4.81,1.4l70.4,243.04L277.6,501.94z M264.87,492.79l-68.75-237.32l-4.81,1.39l66.98,231.2L264.87,492.79z M252.14,483.63
		l-65.32-225.48l-4.8,1.39l63.54,219.35L252.14,483.63z M341.24,547.72l-89.35-308.41l-4.81,1.4l87.57,302.29L341.24,547.72z
		 M328.51,538.57L242.6,242l-4.81,1.4l84.14,290.44L328.51,538.57z M315.78,529.41L233.3,244.69l-4.81,1.4l80.7,278.59
		L315.78,529.41z M303.05,520.26L224,247.38l-4.8,1.4l77.27,266.74L303.05,520.26z M392.14,584.35L289.07,228.54l-4.81,1.39
		l101.29,349.68L392.14,584.35z M379.41,575.19l-99.64-343.97l-4.81,1.4l97.86,337.83L379.41,575.19z M366.69,566.03l-96.21-332.11
		l-4.82,1.4L360.1,561.3L366.69,566.03z M353.95,556.88l-92.76-320.26l-4.81,1.39l90.99,314.13L353.95,556.88z M443.05,620.97
		l-116.79-403.2l-4.82,1.4l115.03,397.07L443.05,620.97z M430.33,611.82L316.96,220.46l-4.81,1.39l111.59,385.22L430.33,611.82z
		 M417.6,602.66l-109.93-379.5l-4.81,1.39l108.16,373.38L417.6,602.66z M404.87,593.51L298.36,225.84l-4.8,1.39l104.73,361.53
		L404.87,593.51z M493.96,657.59l-130.53-450.6l-4.81,1.39l128.75,444.47L493.96,657.59z M481.23,648.44l-127.1-438.75l-4.8,1.39
		L474.65,643.7L481.23,648.44z M468.51,639.28l-123.67-426.9l-4.8,1.4l121.89,420.77L468.51,639.28z M455.78,630.13L335.55,215.07
		l-4.81,1.4L449.2,625.39L455.78,630.13z M532.14,685.06L391.32,198.92l-4.82,1.39l139.05,480.02L532.14,685.06z"/>
	<polygon style="fill:#FFFFFF;" points="430.74,0 323.93,293.62 11.68,304.47 257.93,496.78 171.74,797.11 430.74,622.35 
		689.75,797.11 603.56,496.78 849.81,304.47 537.55,293.62 	"/>
	<polygon style="fill-rule:evenodd;clip-rule:evenodd;fill:#9DB9D9;" points="14.43,303.27 168.82,523.83 168.82,799.53 
		257.05,493.51 	"/>
	<polygon style="fill-rule:evenodd;clip-rule:evenodd;fill:#E6ECF5;" points="483.05,199.55 475.37,190.1 473.81,188.29 
		472.09,175.46 462.82,162.98 461.99,162.78 419.24,152.23 417.73,153.98 	"/>
	<polygon style="fill-rule:evenodd;clip-rule:evenodd;fill:#9DB9D9;" points="481.11,201.56 392.43,179.35 417.73,153.98 
		483.05,199.55 483.49,200.09 	"/>
	<polygon style="fill-rule:evenodd;clip-rule:evenodd;fill:#E6ECF5;" points="529.62,361.72 532.23,355.36 541.8,332.05 
		548.06,320.16 549.82,313.05 559.7,295.79 561.48,288.24 558.72,281.85 555.35,276.1 554.74,275.26 522.11,300.71 521.97,300.73 	
		"/>
	<polygon style="fill-rule:evenodd;clip-rule:evenodd;fill:#9DB9D9;" points="554.74,275.26 522.11,300.7 521.97,300.72 
		521.95,300.55 521.46,299.96 521.54,294.8 519.62,288.88 521.38,269.46 530.38,265.47 534.14,269.52 543.33,269.47 545,271.69 
		552.53,272.28 	"/>
	<polygon style="fill-rule:evenodd;clip-rule:evenodd;fill:#9DB9D9;" points="431.75,313.31 391.71,318.89 399.24,331.29 
		426.5,376.14 382.27,419.85 450.8,457.02 382.27,419.85 426.5,376.14 454.24,348.72 	"/>
	<polygon style="fill-rule:evenodd;clip-rule:evenodd;fill:#E6ECF5;" points="491.5,311.89 487.34,305.55 460.89,309.24 
		448.62,310.96 469.61,333.53 	"/>
	<polygon style="fill-rule:evenodd;clip-rule:evenodd;fill:#9DB9D9;" points="515.32,382.72 528.28,364.97 529.62,361.72 
		521.98,300.73 521.45,300.8 521.18,318.75 502.3,340.83 501.2,326.65 491.5,311.89 469.61,333.53 	"/>
	<polygon style="fill-rule:evenodd;clip-rule:evenodd;fill:#017AB2;" points="473.31,378.75 473.43,378.32 482.54,383.9 
		504.47,397.36 504.52,397.15 505.71,395.88 510.82,388.88 515.32,382.72 469.61,333.53 454.25,348.72 	"/>
	<polygon style="fill-rule:evenodd;clip-rule:evenodd;fill:#E6ECF5;" points="458.71,429.15 461.87,418.02 473.31,378.74 
		454.24,348.72 426.51,376.13 	"/>
	<polygon style="fill-rule:evenodd;clip-rule:evenodd;fill:#5D93C2;" points="334.94,300.93 290.57,333 316.73,329.34 
		290.96,369.56 316.73,329.34 	"/>
	<polygon style="fill-rule:evenodd;clip-rule:evenodd;fill:#006591;" points="364.98,274.9 362.05,278.34 353.69,324.19 
		391.71,318.88 	"/>
	<polygon style="fill-rule:evenodd;clip-rule:evenodd;fill:#017AB2;" points="291.79,370.78 291.2,369.92 290.96,369.56 
		316.73,329.34 353.68,324.19 362.06,278.33 353.68,324.19 350.36,342.4 325.49,350.44 328.57,356.56 342.67,384.54 340.37,397.13 
		352.27,403.58 340.37,397.13 	"/>
	<polygon style="fill-rule:evenodd;clip-rule:evenodd;fill:#5D93C2;" points="334.95,426.86 313.38,402.85 291.79,370.79 
		340.37,397.13 	"/>
	<polygon style="fill-rule:evenodd;clip-rule:evenodd;fill:#C5184B;" points="550.69,818.81 550.69,818.8 550.16,794.88 
		544.03,763.29 531.29,729.55 513.56,695.97 512.85,685.02 537.78,690.48 584.69,776.85 562.45,819.29 562.45,819.3 	"/>
	<polygon style="fill-rule:evenodd;clip-rule:evenodd;fill:#EF485F;" points="665.03,823.54 664.6,824.07 644.22,833.21 
		627.01,837.54 605.29,837.18 576.24,837.59 574.13,837 601.55,820.91 562.44,819.3 550.68,818.81 562.44,819.3 601.55,820.91 	"/>
	<polygon style="fill-rule:evenodd;clip-rule:evenodd;fill:#FBCFC8;" points="628.37,805.18 630.38,806.49 658.03,810.19 
		665.02,809.71 667.05,810.47 670.52,816.68 665.05,823.52 665.03,823.54 601.55,820.92 601.57,820.9 	"/>
	<polygon style="fill-rule:evenodd;clip-rule:evenodd;fill:#006591;" points="537.77,690.48 512.85,685.03 511.06,657.14 
		517.62,653.37 	"/>
	<polygon style="fill-rule:evenodd;clip-rule:evenodd;fill:#FBCFC8;" points="488.15,521.27 553.33,598.42 484.18,599.2 	"/>
	<polygon style="fill-rule:evenodd;clip-rule:evenodd;fill:#017AB2;" points="461.94,599.45 483.49,612.66 484.19,599.2 
		553.33,598.42 484.19,599.2 	"/>
	<polygon style="fill-rule:evenodd;clip-rule:evenodd;fill:#C91948;" points="517.62,653.37 511.06,657.14 509.9,639.16 	"/>
	<polygon style="fill-rule:evenodd;clip-rule:evenodd;fill:#E88C8D;" points="483.49,612.66 484.18,599.2 553.32,598.43 
		554.65,599.99 555.03,609.46 555.61,624 556.45,631 524.85,649.19 517.62,653.37 509.9,639.15 509.78,637.35 509.61,634.57 
		509.13,633.91 501.84,623.9 	"/>
	<polygon style="fill-rule:evenodd;clip-rule:evenodd;fill:#FBCFC8;" points="556.45,631 524.85,649.2 517.62,653.37 537.77,690.47 
		568.79,697.26 567.23,690.39 559.46,656.18 	"/>
	<polygon style="fill-rule:evenodd;clip-rule:evenodd;fill:#C5184B;" points="601.54,820.91 574.13,837 555.82,831.93 562.44,819.3 
			"/>
	<polygon style="fill-rule:evenodd;clip-rule:evenodd;fill:#006591;" points="555.82,831.93 562.44,819.3 550.68,818.81 
		550.94,830.58 	"/>
	<polygon style="fill-rule:evenodd;clip-rule:evenodd;fill:#E88C8D;" points="537.77,690.48 568.79,697.26 587.15,778.1 
		628.37,805.17 601.57,820.9 601.55,820.91 562.45,819.3 562.45,819.29 584.69,776.85 	"/>
	<polygon style="fill-rule:evenodd;clip-rule:evenodd;fill:#017AB2;" points="349.03,602.34 375.91,618 387.99,600.28 351.09,600.7 
		349.65,601.97 351.09,600.7 349.65,600.71 349.49,601.11 	"/>
	<polygon style="fill-rule:evenodd;clip-rule:evenodd;fill:#006591;" points="341.4,555.66 337.52,533.88 338.66,531.52 
		339.35,530.06 336.89,487.9 342.08,476.42 368.8,519.19 	"/>
	<polygon style="fill-rule:evenodd;clip-rule:evenodd;fill:#5D93C2;" points="349.5,601.11 341.4,555.65 304.42,604.84 
		341.4,555.65 368.81,519.19 342.08,476.42 342.54,475.41 444.92,477.77 444.72,478.49 444.51,479.2 466.77,498.45 351.09,600.69 
		349.65,600.72 	"/>
	<polygon style="fill-rule:evenodd;clip-rule:evenodd;fill:#E88C8D;" points="466.76,498.45 351.08,600.69 387.99,600.28 
		404.52,576.04 411.1,562.68 441.65,587.02 461.94,599.45 484.18,599.2 488.16,521.27 474.61,505.23 	"/>
	<polygon style="fill-rule:evenodd;clip-rule:evenodd;fill:#C5184B;" points="349.03,602.34 375.91,618 362.27,638.01 325.62,675.7 
		322.06,675.41 321.39,675.35 	"/>
	<polygon style="fill-rule:evenodd;clip-rule:evenodd;fill:#C5184B;" points="341.4,555.66 337.52,533.88 334.23,540.7 
		305.76,599.81 304.42,604.85 	"/>
	<polygon style="fill-rule:evenodd;clip-rule:evenodd;fill:#F8ABAD;" points="298.56,620.61 348.39,601.97 349.02,602.34 
		349.5,601.11 341.39,555.66 304.42,604.85 301.21,616.83 	"/>
	<polygon style="fill-rule:evenodd;clip-rule:evenodd;fill:#006591;" points="450.8,457.02 444.92,477.76 342.54,475.41 
		350.43,457.97 349.32,452.42 382.27,419.85 	"/>
	<polygon style="fill-rule:evenodd;clip-rule:evenodd;fill:#FBCFC8;" points="340.37,397.13 342.67,384.53 352.26,403.58 	"/>
	<polygon style="fill-rule:evenodd;clip-rule:evenodd;fill:#EF485F;" points="382.27,419.85 349.32,452.42 348.92,450.47 
		347.63,440.97 337.36,429.55 334.95,426.86 340.37,397.13 352.26,403.58 354.54,408.1 359.84,418.62 363.79,423.6 365.65,426.01 
		368.18,428.06 369.06,412.69 	"/>
	<polygon style="fill-rule:evenodd;clip-rule:evenodd;fill:#5D93C2;" points="353.68,324.19 391.72,318.89 399.24,331.29 
		426.5,376.13 382.27,419.85 369.06,412.69 370.46,388.24 370.84,381.5 365.46,343.36 364.67,337.78 350.36,342.4 	"/>
	<polygon style="fill-rule:evenodd;clip-rule:evenodd;fill:#9DB9D9;" points="426.5,376.14 382.27,419.85 450.8,457.02 
		458.71,429.15 	"/>
	<polygon style="fill-rule:evenodd;clip-rule:evenodd;fill:#9DB9D9;" points="316.73,329.34 353.68,324.19 362.05,278.34 
		356.61,284.72 352.3,289.77 343.5,294.74 334.94,300.93 	"/>
	<polygon style="fill-rule:evenodd;clip-rule:evenodd;fill:#006591;" points="290.57,332.99 316.74,329.34 290.96,369.55 
		278.92,351.66 283.98,337.84 284.28,337.54 	"/>
	<polygon style="fill-rule:evenodd;clip-rule:evenodd;fill:#E6ECF5;" points="480.87,236.64 478.71,225.54 476.76,219.77 
		479.11,215.69 478.59,209.85 486.57,203.87 485.28,202.3 481.11,201.56 396.53,253.71 	"/>
	<polygon style="fill-rule:evenodd;clip-rule:evenodd;fill:#B0C4DF;" points="481.11,201.56 483.49,200.09 481.11,201.56 
		396.53,253.71 395.71,253.89 397.31,252.77 404.35,245.31 406.2,227.34 397.53,207.09 393.83,191.76 391.96,179.03 	"/>
	<polygon style="fill-rule:evenodd;clip-rule:evenodd;fill:#006591;" points="395.14,255.66 397.34,255.78 448.62,310.96 
		431.75,313.3 	"/>
	<polygon style="fill-rule:evenodd;clip-rule:evenodd;fill:#017AB2;" points="469.45,259.54 469.16,259.15 459.34,252.07 
		461.09,248.4 466.55,244.86 481.02,237.43 480.87,236.64 396.54,253.72 395.82,254.15 397.34,255.78 	"/>
	<polygon style="fill-rule:evenodd;clip-rule:evenodd;fill:#EF485F;" points="298.56,620.61 348.39,601.97 349.02,602.34 
		349.5,601.11 349.02,602.34 321.39,675.35 	"/>
	<polygon style="fill-rule:evenodd;clip-rule:evenodd;fill:#017AB2;" points="307.46,674.2 293.52,673.04 246.38,667.27 
		199.89,657.53 214.42,652.1 	"/>
	<polygon style="fill-rule:evenodd;clip-rule:evenodd;fill:#C5184B;" points="135.14,633.27 125.66,631.02 67.24,659.92 
		49.42,656.77 38.62,676.08 52.04,681.42 81.11,663.36 105.1,658.93 118.92,656.38 127.58,660.94 129.98,662.2 130.03,661.15 
		130.28,656.69 130.06,656.78 130.35,655.43 130.46,653.53 130.77,653.53 	"/>
	<polygon style="fill-rule:evenodd;clip-rule:evenodd;fill:#EF485F;" points="199.89,657.53 214.41,652.1 167.74,641.01 
		236.67,612.17 167.74,641.01 137.81,653.53 180.95,653.57 	"/>
	<polygon style="fill-rule:evenodd;clip-rule:evenodd;fill:#F8ABAD;" points="140.6,607.95 146.44,615.01 146.74,615.32 
		157.8,619.94 181,618.53 214.67,616.48 226.72,615.9 235.56,612.1 236.66,612.17 167.73,641.01 135.13,633.27 130.76,653.53 
		135.13,633.27 	"/>
	<polygon style="fill-rule:evenodd;clip-rule:evenodd;fill:#F8ABAD;" points="124.15,631.78 67.24,659.92 49.42,656.76 50.91,654.1 
		61.47,635.2 85.68,622.06 87.51,620.54 	"/>
	<polygon style="fill-rule:evenodd;clip-rule:evenodd;fill:#EF485F;" points="88.79,620.93 87.51,620.54 87.56,620.51 88.02,620.12 
		118.11,595.28 131.17,596.55 133.24,599.05 	"/>
	<polygon style="fill-rule:evenodd;clip-rule:evenodd;fill:#FEEBE7;" points="135.14,633.27 125.66,631.02 124.4,631.65 
		124.14,631.77 89.23,621.07 88.79,620.94 133.24,599.05 133.3,599.12 140.61,607.95 	"/>
	<polygon style="fill-rule:evenodd;clip-rule:evenodd;fill:#006591;" points="167.74,641.01 135.14,633.27 130.77,653.53 
		137.82,653.53 	"/>
	<polygon style="fill-rule:evenodd;clip-rule:evenodd;fill:#FEEBE7;" points="214.41,652.1 167.74,641.01 236.66,612.17 
		268.97,614.29 292.15,623.01 	"/>
	<polygon style="fill-rule:evenodd;clip-rule:evenodd;fill:#E88C8D;" points="321.39,675.35 307.46,674.2 214.41,652.11 
		292.15,623.01 295.9,624.42 298.56,620.61 	"/>
	<polygon style="fill-rule:evenodd;clip-rule:evenodd;fill:#5D93C2;" points="431.75,313.31 448.62,310.95 469.61,333.53 
		454.24,348.72 	"/>
	<polygon style="fill-rule:evenodd;clip-rule:evenodd;fill:#5D93C2;" points="395.14,255.66 393.51,255.58 391.19,257 
		390.64,257.39 388.81,258.66 383.6,261.92 378.9,268.76 365.93,273.78 364.98,274.9 391.72,318.88 431.75,313.3 	"/>
	<polygon style="fill-rule:evenodd;clip-rule:evenodd;fill:#9DB9D9;" points="471.43,262.22 469.45,259.53 397.33,255.77 
		448.63,310.95 460.89,309.24 487.33,305.56 486.59,304.43 486.1,300.23 485.25,293.09 481.3,281.6 477.4,270.29 	"/>
	<polygon style="fill-rule:evenodd;clip-rule:evenodd;fill:#017AB2;" points="392.34,179.51 423.29,215.16 406.95,246.58 
		397.53,254.74 404.44,244.37 405.7,226.78 395.01,207.31 	"/>
	<polygon style="fill:#EF485F;" points="280.48,232.97 324.58,293.62 430.74,0 	"/>
	<polygon style="fill-rule:evenodd;clip-rule:evenodd;fill:#017AB2;" points="255.29,490.74 193.95,504.53 11.29,304.65 	"/>
	<polygon style="fill-rule:evenodd;clip-rule:evenodd;fill:#EF485F;" points="648.8,462.67 688.78,794.89 600.56,499.89 	"/>
	<polygon style="fill:#FEECE8;" points="430.76,0.89 685.3,302.98 534.25,305.77 	"/>
	<polygon style="fill:#FBCFC9;" points="425.16,0.89 212.58,149.14 321.67,294.59 	"/>
	<polygon style="fill:#E7EBF4;" points="0,305.77 72.72,560.31 246.15,495.98 	"/>
	<path style="fill:#F8ABAD;" d="M207.53,344.15l420.99,294.01l2.91-4.16L215.75,343.69L207.53,344.15z M302.83,338.85l359.43,251.01
		l2.91-4.16L311.04,338.39L302.83,338.85z M286.94,339.73l369.69,258.18l2.91-4.16L295.16,339.28L286.94,339.73z M271.06,340.62
		l379.95,265.35l2.9-4.16L279.27,340.16L271.06,340.62z M255.18,341.5l390.2,272.52l2.91-4.16l-384.9-268.8L255.18,341.5z
		 M366.35,335.32l318.38,222.35l2.91-4.16L374.57,334.86L366.35,335.32z M350.47,336.2l328.65,229.52l2.91-4.16L358.68,335.74
		L350.47,336.2z M334.59,337.08L673.5,573.77l2.9-4.16L342.81,336.62L334.59,337.08z M318.71,337.96l349.16,243.85l2.91-4.16
		L326.92,337.51L318.71,337.96z M429.88,331.79l277.34,193.69l2.91-4.16L438.09,331.32L429.88,331.79z M414,332.67L701.6,533.52
		l2.91-4.16l-282.3-197.15L414,332.67z M398.12,333.55l297.86,208.02l2.91-4.16L406.33,333.09L398.12,333.55z M382.24,334.43
		l308.13,215.19l2.9-4.16L390.45,333.97L382.24,334.43z M493.41,328.25l236.3,165.03l2.91-4.16L501.62,327.79L493.41,328.25z
		 M477.52,329.13l246.56,172.21l2.91-4.17L485.75,328.68L477.52,329.13z M461.64,330.02l256.83,179.36l2.91-4.17L469.86,329.56
		L461.64,330.02z M445.76,330.9l267.08,186.53l2.91-4.16L453.98,330.44L445.76,330.9z M556.94,324.71L752.2,461.08l2.9-4.16
		L565.15,324.25L556.94,324.71z M541.05,325.6l205.52,143.53l2.91-4.16L549.27,325.14L541.05,325.6z M525.18,326.48l215.78,150.7
		l2.91-4.16l-210.47-147L525.18,326.48z M509.29,327.36l226.04,157.86l2.91-4.16L517.51,326.9L509.29,327.36z M620.46,321.18
		l154.22,107.7l2.9-4.16L628.68,320.73L620.46,321.18z M604.58,322.06l164.48,114.87l2.91-4.16L612.8,321.61L604.58,322.06z
		 M588.7,322.95l174.74,122.03l2.91-4.16L596.92,322.49L588.7,322.95z M572.82,323.83l185,129.2l2.91-4.16l-179.7-125.49
		L572.82,323.83z M683.99,317.64l113.18,79.04l2.91-4.16l-107.87-75.34L683.99,317.64z M668.12,318.53l123.44,86.21l2.9-4.16
		l-118.12-82.5L668.12,318.53z M652.23,319.41l133.69,93.37l2.91-4.17l-128.39-89.66L652.23,319.41z M636.35,320.3L780.3,420.84
		l2.91-4.17l-138.65-96.83L636.35,320.3z M747.52,314.11l72.14,50.38l2.91-4.16l-66.82-46.68L747.52,314.11z M731.64,314.99
		l82.39,57.54l2.9-4.16l-77.08-53.83L731.64,314.99z M715.76,315.87l92.66,64.71l2.9-4.16l-87.35-61L715.76,315.87z M699.88,316.76
		l102.92,71.87l2.91-4.17l-97.61-68.16L699.88,316.76z M811.05,310.58l31.09,21.72l2.91-4.17l-25.79-18.01L811.05,310.58z
		 M795.17,311.46l41.35,28.88l2.91-4.16l-36.05-25.17L795.17,311.46z M779.29,312.35l51.61,36.04l2.9-4.16l-46.3-32.34
		L779.29,312.35z M763.4,313.23l61.87,43.21l2.91-4.16l-56.57-39.51L763.4,313.23z M858.7,307.92l0.31,0.22l0.17-0.24L858.7,307.92z
		 M842.81,308.81l10.57,7.38l2.91-4.16l-5.27-3.68L842.81,308.81z M826.93,309.69l20.83,14.55l2.91-4.16l-15.52-10.85L826.93,309.69
		z M239.3,342.39l400.47,279.68l2.91-4.16L247.51,341.93L239.3,342.39z M191.61,345.04l431.28,301.19l2.91-4.16L199.83,344.58
		L191.61,345.04z M223.42,343.27l410.73,286.85l2.9-4.16L231.63,342.81L223.42,343.27z"/>
	<path style="fill:#9CB8D8;" d="M680.46,809.28L252.69,525.22l-2.81,4.24l422.38,280.47L680.46,809.28z M585.33,816.81L220.1,574.3
		l-2.8,4.23l359.82,238.94L585.33,816.81z M601.18,815.55L225.53,566.12l-2.81,4.23l370.26,245.86L601.18,815.55z M617.04,814.3
		L230.97,557.94l-2.81,4.23l380.68,252.78L617.04,814.3z M632.9,813.05L236.4,549.76l-2.82,4.23l391.11,259.7L632.9,813.05z
		 M521.9,821.83L198.38,607.02l-2.81,4.22l318.12,211.25L521.9,821.83z M537.75,820.58L203.81,598.83l-2.81,4.23l328.55,218.17
		L537.75,820.58z M553.61,819.33L209.24,590.65l-2.81,4.24l338.98,225.08L553.61,819.33z M569.47,818.06l-354.8-235.59l-2.81,4.23
		l349.4,232.01L569.47,818.06z M458.47,826.86L176.66,639.73l-2.81,4.23l276.42,183.55L458.47,826.86z M474.33,825.6L182.08,631.55
		l-2.81,4.23l286.85,190.48L474.33,825.6z M490.18,824.34L187.52,623.37l-2.81,4.24l297.27,197.39L490.18,824.34z M506.04,823.09
		l-313.09-207.9l-2.81,4.24l307.7,204.32L506.04,823.09z M395.04,831.88l-240.1-159.44l-2.81,4.23l234.71,155.86L395.04,831.88z
		 M410.9,830.63L160.36,664.27l-2.81,4.23l245.14,162.78L410.9,830.63z M426.75,829.37L165.79,656.09l-2.81,4.23l255.57,169.7
		L426.75,829.37z M442.61,828.11l-271.38-180.2l-2.81,4.23l266,176.63L442.61,828.11z M331.61,836.91l-198.4-131.75l-2.81,4.24
		l193.01,128.17L331.61,836.91z M347.47,835.65L138.64,696.98l-2.81,4.24L339.26,836.3L347.47,835.65z M363.33,834.39L144.07,688.8
		l-2.81,4.23l213.87,142.02L363.33,834.39z M379.18,833.14L149.5,680.62l-2.81,4.23l224.29,148.94L379.18,833.14z M268.18,841.93
		l-156.7-104.05l-2.81,4.23l151.31,100.47L268.18,841.93z M284.04,840.68L116.91,729.7l-2.81,4.23l161.73,107.39L284.04,840.68z
		 M299.9,839.42l-177.55-117.9l-2.81,4.23L291.7,840.07L299.9,839.42z M315.75,838.16L127.77,713.34l-2.81,4.24l182.59,121.24
		L315.75,838.16z M204.75,846.96l-115-76.36l-2.81,4.23l109.61,72.79L204.75,846.96z M220.62,845.7L95.19,762.41l-2.81,4.23
		l120.03,79.71L220.62,845.7z M236.47,844.44l-135.85-90.21l-2.81,4.23l130.46,86.63L236.47,844.44z M252.33,843.19l-146.28-97.13
		l-2.81,4.23l140.89,93.55L252.33,843.19z M141.33,851.98l-73.29-48.68l-2.82,4.24l67.91,45.08L141.33,851.98z M157.19,850.73
		l-83.73-55.6l-2.81,4.24l78.33,52.01L157.19,850.73z M173.04,849.47L78.9,786.96l-2.81,4.23l88.75,58.93L173.04,849.47z
		 M188.9,848.21L84.32,778.77L81.51,783l99.19,65.86L188.9,848.21z M77.9,857l-31.59-20.97l-2.81,4.23l26.2,17.4L77.9,857z
		 M93.75,855.74l-42.02-27.9l-2.81,4.23l36.63,24.32L93.75,855.74z M109.62,854.49l-52.45-34.82l-2.81,4.23l47.05,31.24
		L109.62,854.49z M125.47,853.24L62.6,811.48l-2.81,4.24l57.47,38.16L125.47,853.24z M30.33,860.77l-0.31-0.21l-0.16,0.25
		L30.33,860.77z M46.18,859.51l-10.74-7.13l-2.81,4.23l5.35,3.55L46.18,859.51z M62.05,858.26L40.88,844.2l-2.81,4.23l15.78,10.48
		L62.05,858.26z M648.75,811.78l-406.93-270.2l-2.81,4.23l401.53,266.63L648.75,811.78z M696.36,808.01L258.13,517.03l-2.81,4.23
		l432.83,287.41L696.36,808.01z M664.61,810.53L247.26,533.4l-2.81,4.23l411.96,273.55L664.61,810.53z"/>
	<path style="fill:#F8ABAD;" d="M533.37,695.03L390.49,201.81l-4.87,1.41l141.07,487.01L533.37,695.03z M455.9,639.3L333.91,218.21
		l-4.87,1.41l120.18,414.87L455.9,639.3z M468.81,648.59L343.34,215.48l-4.88,1.41l123.67,426.9L468.81,648.59z M481.72,657.88
		L352.77,212.74l-4.88,1.41l127.15,438.92L481.72,657.88z M494.63,667.16L362.2,210.01l-4.87,1.41l130.63,450.94L494.63,667.16z
		 M404.25,602.15L296.19,229.13l-4.88,1.41l106.25,366.79L404.25,602.15z M417.16,611.43L305.62,226.4l-4.87,1.41l109.73,378.81
		L417.16,611.43z M430.07,620.72L315.05,223.67l-4.88,1.41l113.22,390.83L430.07,620.72z M442.98,630.01l-118.5-409.07l-4.88,1.41
		L436.3,625.2L442.98,630.01z M352.6,564.99l-94.13-324.93l-4.88,1.41l92.33,318.71L352.6,564.99z M365.51,574.27l-97.6-336.94
		l-4.88,1.41l95.8,330.73L365.51,574.27z M378.42,583.56L277.33,234.59l-4.87,1.42l99.29,342.75L378.42,583.56z M391.33,592.86
		l-104.57-361l-4.88,1.42l102.77,354.77L391.33,592.86z M300.95,527.83l-80.2-276.85l-4.87,1.42l78.39,270.62L300.95,527.83z
		 M313.85,537.12l-83.68-288.87l-4.88,1.41l81.88,282.64L313.85,537.12z M326.77,546.41l-87.16-300.89l-4.88,1.41l85.36,294.66
		L326.77,546.41z M339.68,555.69l-90.64-312.9l-4.87,1.41L333,550.89L339.68,555.69z M249.29,490.67l-66.27-228.76l-4.88,1.41
		l64.47,222.54L249.29,490.67z M262.2,499.96l-69.75-240.78l-4.87,1.41l67.95,234.56L262.2,499.96z M275.12,509.25l-73.23-252.8
		l-4.87,1.41l71.43,246.58L275.12,509.25z M288.03,518.54l-76.71-264.83l-4.88,1.42l74.91,258.6L288.03,518.54z M197.64,453.52
		l-52.34-180.68l-4.88,1.41l50.54,174.46L197.64,453.52z M210.55,462.81l-55.82-192.7l-4.88,1.41L203.87,458L210.55,462.81z
		 M223.47,472.09l-59.31-204.72l-4.87,1.41l57.5,198.5L223.47,472.09z M236.38,481.38L173.6,264.65l-4.87,1.41l60.98,210.52
		L236.38,481.38z M145.99,416.36l-38.41-132.59l-4.87,1.41l36.6,126.37L145.99,416.36z M158.91,425.65l-41.9-144.61l-4.88,1.41
		l40.1,138.39L158.91,425.65z M171.82,434.94L126.45,278.3l-4.88,1.42l43.57,150.42L171.82,434.94z M184.73,444.23l-48.85-168.66
		l-4.87,1.42l47.06,162.43L184.73,444.23z M94.34,379.21l-24.48-84.51l-4.88,1.41l22.68,78.29L94.34,379.21z M107.26,388.5
		L79.3,291.96l-4.88,1.41l26.16,90.31L107.26,388.5z M120.17,397.78L88.72,289.23l-4.88,1.41l29.65,102.33L120.17,397.78z
		 M133.08,407.07L98.16,286.5l-4.88,1.41l33.12,114.35L133.08,407.07z M42.69,342.04l-10.55-36.42l-4.87,1.41l8.74,30.2
		L42.69,342.04z M55.61,351.33l-14.03-48.44l-4.88,1.41l12.24,42.22L55.61,351.33z M68.52,360.62L51,300.16l-4.88,1.41l15.71,54.25
		L68.52,360.62z M81.43,369.92l-21-72.49l-4.87,1.42l19.19,66.27L81.43,369.92z M3.96,314.18l-0.11-0.37l-0.29,0.08L3.96,314.18z
		 M16.87,323.47l-3.58-12.39L8.4,312.5l1.79,6.17L16.87,323.47z M29.78,332.75l-7.07-24.4l-4.87,1.41l5.27,18.19L29.78,332.75z
		 M507.54,676.45L371.63,207.28l-4.88,1.42l134.11,462.96L507.54,676.45z M546.31,704.34L399.95,199.08l-4.88,1.41l144.57,499.05
		L546.31,704.34z M520.46,685.74l-139.4-481.2l-4.87,1.41l137.59,474.98L520.46,685.74z"/>
	<polygon style="fill:#FFFFFF;" points="430.49,0 538.86,297.9 855.66,308.9 605.82,504.01 693.26,808.71 430.49,631.41 
		167.72,808.71 255.16,504.02 5.33,308.9 322.13,297.9 	"/>
	<polygon style="fill:#9CB8D8;" points="8.12,307.69 164.76,531.46 164.76,811.17 254.27,500.69 	"/>
	<polygon style="fill:#E7EBF4;" points="483.56,202.46 475.77,192.87 474.19,191.03 472.44,178.01 463.04,165.36 462.2,165.14 
		418.83,154.44 417.3,156.22 	"/>
	<polygon style="fill:#9CB8D8;" points="481.6,204.5 391.63,181.95 417.29,156.22 483.56,202.46 484.01,203 	"/>
	<polygon style="fill:#E7EBF4;" points="530.81,366.99 533.46,360.52 543.16,336.88 549.53,324.83 551.31,317.61 561.33,300.09 
		563.13,292.44 560.33,285.96 556.91,280.11 556.29,279.27 523.2,305.08 523.05,305.1 	"/>
	<polygon style="fill:#9CB8D8;" points="556.29,279.27 523.19,305.08 523.06,305.1 523.03,304.93 522.54,304.32 522.62,299.09 
		520.67,293.08 522.45,273.38 531.59,269.34 535.39,273.44 544.72,273.39 546.41,275.65 554.06,276.24 	"/>
	<polygon style="fill:#9CB8D8;" points="431.52,317.87 390.9,323.53 398.54,336.11 426.19,381.61 381.31,425.96 450.85,463.67 
		381.31,425.96 426.19,381.61 454.34,353.8 	"/>
	<polygon style="fill:#E7EBF4;" points="492.14,316.44 487.91,310.01 461.08,313.75 448.63,315.48 469.93,338.39 	"/>
	<polygon style="fill:#9CB8D8;" points="516.31,388.29 529.45,370.29 530.81,366.99 523.05,305.1 522.53,305.18 522.25,323.39 
		503.1,345.79 501.97,331.4 492.14,316.43 469.92,338.39 	"/>
	<polygon style="fill:#007AB1;" points="473.68,384.26 473.81,383.82 483.04,389.49 505.3,403.14 505.34,402.93 506.55,401.64 
		511.74,394.54 516.3,388.29 469.93,338.39 454.34,353.8 	"/>
	<polygon style="fill:#E7EBF4;" points="458.87,435.4 462.07,424.11 473.68,384.26 454.34,353.8 426.19,381.62 	"/>
	<polygon style="fill:#5C92C2;" points="333.3,305.31 288.28,337.84 314.83,334.14 288.68,374.94 314.83,334.14 	"/>
	<polygon style="fill:#006591;" points="363.78,278.9 360.8,282.38 352.32,328.91 390.89,323.53 	"/>
	<polygon style="fill:#007AB1;" points="289.52,376.18 288.92,375.3 288.68,374.94 314.83,334.14 352.31,328.91 360.8,282.38 
		352.31,328.91 348.94,347.39 323.71,355.55 326.83,361.75 341.14,390.14 338.8,402.91 350.87,409.45 338.8,402.91 	"/>
	<polygon style="fill:#5C92C2;" points="333.3,433.07 311.42,408.72 289.52,376.18 338.81,402.91 	"/>
	<polygon style="fill:#C6184A;" points="552.18,830.73 552.18,830.72 551.65,806.45 545.43,774.4 532.5,740.17 514.51,706.1 
		513.8,695 539.08,700.53 586.68,788.17 564.11,831.22 564.11,831.22 	"/>
	<polygon style="fill:#EF495F;" points="668.19,835.53 667.76,836.08 647.07,845.35 629.63,849.74 607.58,849.36 578.11,849.77 
		575.97,849.18 603.78,832.87 564.11,831.22 552.18,830.73 564.11,831.22 603.78,832.87 	"/>
	<polygon style="fill:#FBCFC9;" points="631,816.9 633.03,818.23 661.09,821.99 668.19,821.49 670.24,822.27 673.76,828.57 
		668.21,835.5 668.19,835.53 603.78,832.87 603.81,832.85 	"/>
	<polygon style="fill:#006591;" points="539.08,700.53 513.79,695 511.98,666.71 518.63,662.88 	"/>
	<polygon style="fill:#FBCFC9;" points="488.74,528.85 554.86,607.13 484.71,607.92 	"/>
	<polygon style="fill:#007AB1;" points="462.14,608.18 484.01,621.58 484.71,607.93 554.86,607.13 484.71,607.93 	"/>
	<polygon style="fill:#C91847;" points="518.63,662.88 511.98,666.71 510.81,648.46 	"/>
	<polygon style="fill:#E98C8C;" points="484.01,621.58 484.71,607.93 554.87,607.13 556.21,608.73 556.59,618.33 557.18,633.08 
		558.03,640.18 525.97,658.64 518.63,662.87 510.81,648.46 510.69,646.62 510.51,643.8 510.02,643.14 502.63,632.98 	"/>
	<polygon style="fill:#FBCFC9;" points="558.03,640.18 525.97,658.65 518.63,662.87 539.08,700.53 570.55,707.41 568.97,700.44 
		561.09,665.73 	"/>
	<polygon style="fill:#C6184A;" points="603.78,832.86 575.97,849.19 557.39,844.04 564.11,831.22 	"/>
	<polygon style="fill:#006591;" points="557.39,844.04 564.11,831.23 552.18,830.73 552.44,842.67 	"/>
	<polygon style="fill:#E98C8C;" points="539.08,700.53 570.55,707.41 589.19,789.43 631,816.9 603.8,832.85 603.78,832.86 
		564.11,831.23 564.11,831.22 586.68,788.17 	"/>
	<polygon style="fill:#007AB1;" points="347.59,611.11 374.86,627 387.12,609.02 349.68,609.44 348.22,610.73 349.68,609.44 
		348.22,609.46 348.07,609.86 	"/>
	<polygon style="fill:#006591;" points="339.85,563.74 335.91,541.65 337.07,539.25 337.78,537.78 335.27,495.01 340.54,483.36 
		367.66,526.75 	"/>
	<polygon style="fill:#5C92C2;" points="348.06,609.86 339.85,563.74 302.33,613.65 339.85,563.74 367.65,526.75 340.54,483.36 
		341,482.33 444.88,484.72 444.67,485.45 444.46,486.17 467.04,505.7 349.68,609.44 348.21,609.46 	"/>
	<polygon style="fill:#E98C8C;" points="467.04,505.7 349.68,609.44 387.12,609.02 403.89,584.43 410.56,570.86 441.56,595.56 
		462.14,608.18 484.71,607.92 488.74,528.85 475,512.59 	"/>
	<polygon style="fill:#C6184A;" points="347.59,611.11 374.86,627 361.02,647.3 323.84,685.54 320.23,685.24 319.55,685.18 	"/>
	<polygon style="fill:#C6184A;" points="339.85,563.74 335.91,541.65 332.58,548.57 303.7,608.54 302.33,613.65 	"/>
	<polygon style="fill:#F8ABAD;" points="296.39,629.65 346.94,610.73 347.59,611.11 348.06,609.86 339.85,563.75 302.33,613.66 
		299.07,625.81 	"/>
	<polygon style="fill:#006591;" points="450.85,463.67 444.88,484.72 341,482.33 349.02,464.63 347.88,459.01 381.31,425.97 	"/>
	<polygon style="fill:#FBCFC9;" points="338.81,402.91 341.14,390.14 350.87,409.46 	"/>
	<polygon style="fill:#EF495F;" points="381.31,425.96 347.88,459.01 347.48,457.04 346.16,447.4 335.75,435.8 333.3,433.07 
		338.81,402.91 350.87,409.46 353.19,414.04 358.55,424.71 362.56,429.76 364.45,432.21 367.03,434.3 367.92,418.7 	"/>
	<polygon style="fill:#5C92C2;" points="352.31,328.91 390.9,323.53 398.54,336.11 426.19,381.62 381.31,425.96 367.92,418.7 
		369.33,393.89 369.72,387.06 364.26,348.36 363.46,342.69 348.94,347.39 	"/>
	<polygon style="fill:#9CB8D8;" points="426.19,381.61 381.31,425.96 450.85,463.68 458.87,435.39 	"/>
	<polygon style="fill:#9CB8D8;" points="314.83,334.14 352.31,328.91 360.81,282.39 355.28,288.86 350.92,293.98 341.99,299.03 
		333.3,305.31 	"/>
	<polygon style="fill:#006591;" points="288.28,337.84 314.82,334.14 288.68,374.94 276.46,356.78 281.59,342.76 281.9,342.45 	"/>
	<polygon style="fill:#E7EBF4;" points="481.35,240.09 479.16,228.83 477.19,222.97 479.56,218.83 479.04,212.91 487.13,206.84 
		485.82,205.24 481.59,204.5 395.79,257.41 	"/>
	<polygon style="fill:#AFC5DF;" points="481.6,204.5 484.01,203 481.6,204.5 395.78,257.41 394.95,257.58 396.57,256.45 
		403.72,248.88 405.6,230.65 396.8,210.11 393.05,194.54 391.15,181.64 	"/>
	<polygon style="fill:#006591;" points="394.38,259.39 396.61,259.5 448.64,315.48 431.52,317.87 	"/>
	<polygon style="fill:#007AB1;" points="469.76,263.32 469.47,262.92 459.51,255.75 461.29,252.01 466.83,248.44 481.5,240.89 
		481.35,240.08 395.79,257.41 395.07,257.85 396.6,259.5 	"/>
	<polygon style="fill:#EF495F;" points="296.39,629.65 346.94,610.73 347.59,611.11 348.06,609.86 347.59,611.11 319.55,685.18 	"/>
	<polygon style="fill:#007AB1;" points="305.42,684.01 291.27,682.85 243.44,676.98 196.29,667.11 211.02,661.59 	"/>
	<polygon style="fill:#C6184A;" points="130.59,642.49 120.97,640.21 61.7,669.53 43.62,666.32 32.66,685.92 46.28,691.34 
		75.77,673.03 100.11,668.52 114.14,665.94 122.92,670.56 125.35,671.84 125.41,670.78 125.66,666.25 125.44,666.34 125.73,664.98 
		125.84,663.05 126.15,663.05 	"/>
	<polygon style="fill:#EF495F;" points="196.29,667.11 211.01,661.59 163.66,650.35 233.59,621.08 163.66,650.35 133.31,663.05 
		177.06,663.08 	"/>
	<polygon style="fill:#F8ABAD;" points="136.13,616.8 142.05,623.96 142.35,624.28 153.58,628.96 177.12,627.54 211.28,625.47 
		223.51,624.88 232.47,621.01 233.59,621.08 163.66,650.34 130.59,642.49 126.15,663.05 130.59,642.49 	"/>
	<polygon style="fill:#F8ABAD;" points="119.43,640.97 61.7,669.53 43.62,666.33 45.13,663.62 55.85,644.45 80.41,631.12 
		82.27,629.58 	"/>
	<polygon style="fill:#EF495F;" points="83.56,629.97 82.27,629.58 82.31,629.54 82.78,629.15 113.3,603.95 126.56,605.23 
		128.67,607.78 	"/>
	<polygon style="fill:#FEECE8;" points="130.59,642.49 120.97,640.21 119.69,640.84 119.43,640.97 84,630.11 83.56,629.98 
		128.67,607.77 128.72,607.84 136.13,616.8 	"/>
	<polygon style="fill:#006591;" points="163.66,650.35 130.59,642.49 126.15,663.05 133.31,663.05 	"/>
	<polygon style="fill:#FEECE8;" points="211.02,661.59 163.66,650.35 233.59,621.08 266.36,623.24 289.88,632.08 	"/>
	<polygon style="fill:#E98C8C;" points="319.55,685.18 305.42,684.01 211.02,661.59 289.88,632.08 293.69,633.51 296.39,629.65 	"/>
	<polygon style="fill:#5C92C2;" points="431.52,317.87 448.63,315.48 469.93,338.39 454.34,353.8 	"/>
	<polygon style="fill:#5C92C2;" points="394.38,259.39 392.72,259.3 390.37,260.75 389.81,261.13 387.95,262.42 382.66,265.73 
		377.9,272.67 364.74,277.78 363.78,278.9 390.89,323.53 431.52,317.87 	"/>
	<polygon style="fill:#9CB8D8;" points="471.78,266.04 469.76,263.32 396.6,259.5 448.63,315.48 461.08,313.75 487.91,310.01 
		487.16,308.86 486.66,304.6 485.8,297.36 481.78,285.69 477.83,274.23 	"/>
	<polygon style="fill:#007AB1;" points="391.54,182.13 422.93,218.29 406.36,250.17 396.8,258.46 403.81,247.93 405.08,230.09 
		394.25,210.33 	"/>
	<polygon style="fill:#EF495F;" points="430.49,0 278.04,236.36 322.8,297.89 	"/>
	<polygon style="fill:#007AB1;" points="252.49,497.89 190.25,511.87 4.94,309.08 	"/>
	<polygon style="fill:#EF495F;" points="651.73,469.41 692.29,806.46 602.78,507.17 	"/>
	<polygon style="fill:#006591;" points="991.01,634.79 991.01,438.73 954.58,438.73 954.58,634.79 918.81,634.79 918.81,404.29 
		1026.78,404.29 1026.78,634.79 	"/>
	<path style="fill:#006591;" d="M1114.14,457.61c-2.21,15.9-4.52,31.74-6.96,47.52c-2.42,15.79-5.07,31.85-7.94,48.19h31.46
		l-14.9-95.71H1114.14z M1145.27,634.79l-8.94-48.02h-42.39c-1.55,7.94-3.04,15.95-4.47,24.01c-1.43,8.06-2.82,16.06-4.14,24.01
		h-36.43c7.73-38.63,15.45-77.05,23.18-115.25c7.73-38.2,15.45-76.61,23.18-115.25h39.74l46.7,230.5H1145.27z"/>
	<polygon style="fill:#006591;" points="1250.19,437.73 1250.19,634.78 1214.43,634.78 1214.43,437.73 1177.34,437.73 
		1177.34,404.28 1287.29,404.28 1287.29,437.73 	"/>
	<path style="fill:#006591;" d="M1343.19,437.74v74.52h12.58c11.04,0,18.71-3.15,23.01-9.5c4.31-6.29,6.47-15.78,6.47-28.43
		c0-11.31-2.05-20.26-6.13-26.77c-4.09-6.57-11.65-9.82-22.69-9.82H1343.19z M1358.43,404.28c21.19,0,36.71,5.53,46.53,16.56
		c9.82,11.04,14.74,28.81,14.74,53.32c0,10.82-1,20.64-2.98,29.48c-1.98,8.83-5.41,16.39-10.27,22.69
		c-4.85,6.29-11.2,11.2-19.04,14.73c-7.84,3.53-17.72,5.3-29.65,5.3h-14.56v88.42h-35.77v-230.5H1358.43z"/>
	<polygon style="fill:#006591;" points="1526.6,490.39 1478.24,634.79 1443.8,634.79 1443.8,404.29 1478.58,404.29 1478.58,550.34 
		1479.9,550.34 1527.92,404.29 1562.69,404.29 1562.69,634.79 1527.59,634.79 1527.59,490.39 	"/>
	<path style="fill:#006591;" d="M1706.69,575.84c0,20.09-4.52,35.27-13.52,45.54c-9.05,10.27-23.24,15.4-42.62,15.4
		c-19.37,0-33.44-4.92-42.28-14.74c-8.78-9.82-13.2-24.01-13.2-42.55V463.57c0-9.05,1.05-17.33,3.15-24.84
		c2.1-7.51,5.35-13.96,9.72-19.37c4.41-5.41,10.21-9.61,17.33-12.59c7.17-2.98,15.73-4.47,25.6-4.47c10.55,0,19.43,1.38,26.61,4.14
		c7.13,2.76,12.87,6.79,17.17,12.08c4.25,5.3,7.35,11.71,9.22,19.21c1.88,7.51,2.82,16.01,2.82,25.5V575.84z M1670.92,460.59
		c0-6.4-1.38-12.14-4.14-17.22c-2.77-5.07-8.01-7.61-15.73-7.61c-4.2,0-7.62,0.94-10.26,2.82c-2.65,1.87-4.69,4.19-6.14,6.95
		c-1.43,2.76-2.42,5.85-2.97,9.27c-0.55,3.42-0.83,6.57-0.83,9.43v115.92c0,5.96,1.49,11.31,4.47,16.06
		c2.98,4.74,8.11,7.12,15.4,7.12c7.28,0,12.47-2.49,15.56-7.45c3.09-4.97,4.64-10.99,4.64-18.06V460.59z"/>
	<polygon style="fill:#006591;" points="1797.37,437.73 1797.37,634.78 1761.6,634.78 1761.6,437.73 1724.51,437.73 1724.51,404.28 
		1834.46,404.28 1834.46,437.73 	"/>
	<rect x="1827.11" y="594.71" style="fill:#006591;" width="37.09" height="40.08"/>
	<path style="fill:#006591;" d="M1949.99,402.3c9.49,0,17.66,1.33,24.51,3.92c6.84,2.65,12.53,6.29,17.06,10.98
		c4.52,4.7,7.83,10.32,9.94,16.78c2.09,6.46,3.15,13.58,3.15,21.31l-34.78,8.94c0-8.39-1.6-15.23-4.75-20.53
		c-3.2-5.3-8.28-7.95-15.29-7.95c-4.14,0-7.56,0.88-10.16,2.65c-2.65,1.77-4.7,4.03-6.13,6.79c-1.38,2.77-2.37,5.8-2.92,9
		s-0.82,6.24-0.82,9.1v117.13c0,2.21,0.22,4.64,0.66,7.29c0.44,2.7,1.38,5.19,2.76,7.5c1.43,2.32,3.42,4.25,5.96,5.8
		c2.48,1.54,5.74,2.32,9.65,2.32c13.14,0,19.82-9.49,20.04-28.48c5.96,1.11,11.92,2.04,17.88,2.82c5.96,0.77,11.92,1.61,17.88,2.49
		c-0.45,17.44-5.25,31.24-14.41,41.39c-9.16,10.16-22.69,15.24-40.57,15.24c-18.99,0-33.01-4.8-42.06-14.41
		c-9.05-9.61-13.58-23.68-13.58-42.23V465.22c0-8.61,0.94-16.73,2.81-24.34c1.88-7.62,5.02-14.3,9.44-20.04s10.21-10.26,17.39-13.58
		C1930.84,403.95,1939.61,402.3,1949.99,402.3"/>
	<polygon style="fill:#006591;" points="2103.92,634.79 2103.92,438.73 2067.49,438.73 2067.49,634.79 2031.72,634.79 
		2031.72,404.29 2139.69,404.29 2139.69,634.79 	"/>
	<path style="fill:#006591;" d="M2285.01,575.84c0,20.09-4.53,35.27-13.53,45.54c-9.05,10.27-23.24,15.4-42.61,15.4
		c-19.37,0-33.45-4.92-42.28-14.74c-8.77-9.82-13.19-24.01-13.19-42.55V463.57c0-9.05,1.05-17.33,3.15-24.84
		c2.1-7.51,5.35-13.96,9.71-19.37c4.42-5.41,10.21-9.61,17.33-12.59c7.18-2.98,15.73-4.47,25.61-4.47c10.54,0,19.43,1.38,26.61,4.14
		c7.12,2.76,12.86,6.79,17.17,12.08c4.25,5.3,7.34,11.71,9.22,19.21c1.88,7.51,2.82,16.01,2.82,25.5V575.84z M2249.24,460.59
		c0-6.4-1.38-12.14-4.14-17.22c-2.76-5.07-8-7.61-15.73-7.61c-4.2,0-7.62,0.94-10.27,2.82c-2.64,1.87-4.69,4.19-6.13,6.95
		c-1.43,2.76-2.42,5.85-2.97,9.27c-0.55,3.42-0.83,6.57-0.83,9.43v115.92c0,5.96,1.49,11.31,4.47,16.06
		c2.98,4.74,8.11,7.12,15.4,7.12c7.29,0,12.48-2.49,15.57-7.45c3.09-4.97,4.64-10.99,4.64-18.06V460.59z"/>
	<path style="fill:#006591;" d="M2354.82,437.74v74.52h12.58c11.05,0,18.72-3.15,23.02-9.5c4.31-6.29,6.47-15.78,6.47-28.43
		c0-11.31-2.05-20.26-6.13-26.77c-4.08-6.57-11.65-9.82-22.69-9.82H2354.82z M2370.05,404.28c21.19,0,36.71,5.53,46.53,16.56
		c9.82,11.04,14.74,28.81,14.74,53.32c0,10.82-1,20.64-2.98,29.48c-1.98,8.83-5.41,16.39-10.27,22.69
		c-4.85,6.29-11.2,11.2-19.04,14.73c-7.83,3.53-17.72,5.3-29.64,5.3h-14.57v88.42h-35.77v-230.5H2370.05z"/>
	<polygon style="fill:#006591;" points="2513.39,437.73 2513.39,634.78 2477.62,634.78 2477.62,437.73 2440.53,437.73 
		2440.53,404.28 2550.48,404.28 2550.48,437.73 	"/>
	<polygon style="fill:#006591;" points="1289.37,324.04 1300.86,247.93 1324.29,247.93 1324.29,355.13 1308.36,355.13 
		1308.36,278.25 1296.72,355.13 1280.8,355.13 1268.24,279.32 1268.24,355.13 1253.54,355.13 1253.54,247.93 1276.97,247.93 	"/>
	<path style="fill:#006591;" d="M1335.16,273.66c0-8.58,2.2-15.21,6.59-19.91c4.39-4.7,10.72-7.05,18.99-7.05
		c8.27,0,14.6,2.35,18.99,7.05c4.39,4.7,6.58,11.33,6.58,19.91v55.75c0,8.58-2.2,15.21-6.58,19.91c-4.39,4.7-10.72,7.04-18.99,7.04
		c-8.27,0-14.6-2.35-18.99-7.04c-4.39-4.69-6.59-11.33-6.59-19.91V273.66z M1352.01,330.48c0,7.05,2.91,10.57,8.73,10.57
		c5.82,0,8.73-3.52,8.73-10.57v-57.89c0-7.04-2.91-10.57-8.73-10.57c-5.82,0-8.73,3.52-8.73,10.57V330.48z"/>
	<path style="fill:#006591;" d="M1446.04,315.16v14.24c0,17.97-8.37,26.96-25.12,26.96c-16.75,0-25.12-8.98-25.12-26.96v-55.75
		c0-17.97,8.37-26.95,25.12-26.95c16.74,0,25.12,8.98,25.12,26.95v10.41h-15.93v-11.49c0-7.05-2.91-10.57-8.73-10.57
		c-5.82,0-8.73,3.52-8.73,10.57v57.89c0,6.94,2.91,10.41,8.73,10.41c5.82,0,8.73-3.47,8.73-10.41v-15.32H1446.04z"/>
	<polygon style="fill:#006591;" points="1478.36,312.4 1473.15,322.21 1473.15,355.13 1456.3,355.13 1456.3,247.93 1473.15,247.93 
		1473.15,294.64 1495.2,247.93 1512.05,247.93 1488.62,295.71 1512.05,355.13 1494.74,355.13 	"/>
	<path style="fill:#006591;" d="M1518.33,273.66c0-8.58,2.2-15.21,6.58-19.91c4.39-4.7,10.72-7.05,18.99-7.05
		c8.27,0,14.6,2.35,18.99,7.05c4.39,4.7,6.58,11.33,6.58,19.91v55.75c0,8.58-2.2,15.21-6.58,19.91c-4.39,4.7-10.72,7.04-18.99,7.04
		c-8.27,0-14.6-2.35-18.99-7.04c-4.39-4.69-6.58-11.33-6.58-19.91V273.66z M1535.17,330.48c0,7.05,2.91,10.57,8.73,10.57
		c5.82,0,8.73-3.52,8.73-10.57v-57.89c0-7.04-2.91-10.57-8.73-10.57c-5.82,0-8.73,3.52-8.73,10.57V330.48z"/>
	<path style="fill:#006591;" d="M1605.77,247.93c16.64,0,24.96,8.22,24.96,24.66v3.83c0,11.03-3.63,18.22-10.87,21.59
		c8.37,3.27,12.56,10.93,12.56,22.97v8.73c0,16.95-8.53,25.42-25.58,25.42h-26.5V247.93H1605.77z M1597.2,263.24v28.33h6.59
		c6.74,0,10.11-3.78,10.11-11.33v-5.97c0-7.35-2.86-11.03-8.58-11.03H1597.2z M1597.2,306.89v32.93h9.65
		c5.82,0,8.73-3.52,8.73-10.57v-9.34c0-4.9-0.87-8.32-2.6-10.26c-1.63-1.84-4.39-2.76-8.27-2.76H1597.2z"/>
	<path style="fill:#006591;" d="M1691.39,315.16v14.24c0,17.97-8.37,26.96-25.12,26.96c-16.75,0-25.12-8.98-25.12-26.96v-55.75
		c0-17.97,8.37-26.95,25.12-26.95c16.74,0,25.12,8.98,25.12,26.95v10.41h-15.93v-11.49c0-7.05-2.91-10.57-8.73-10.57
		c-5.82,0-8.73,3.52-8.73,10.57v57.89c0,6.94,2.91,10.41,8.73,10.41c5.82,0,8.73-3.47,8.73-10.41v-15.32H1691.39z"/>
	<polygon style="fill:#006591;" points="1723.7,312.4 1718.49,322.21 1718.49,355.13 1701.64,355.13 1701.64,247.93 1718.49,247.93 
		1718.49,294.64 1740.54,247.93 1757.39,247.93 1733.96,295.71 1757.39,355.13 1740.09,355.13 	"/>
	<polygon style="fill:#006591;" points="1782.35,355.13 1765.05,355.13 1765.05,247.93 1780.05,247.93 1780.05,315.77 
		1786.18,292.19 1799.96,247.93 1818.5,247.93 1818.5,355.13 1803.33,355.13 1803.33,279.63 1796.44,305.97 	"/>
	<path style="fill:#006591;" d="M1847.75,355.13h-17.3V247.93h15.01v67.85l6.13-23.59l13.78-44.26h18.53v107.21h-15.16v-75.5
		l-6.89,26.34L1847.75,355.13z M1865.05,224.04c-0.41,4.7-2.96,7.05-7.66,7.05c-4.39,0-6.79-2.35-7.2-7.05h-10.42
		c0.31,11.33,6.18,17,17.61,17c11.95,0,17.92-5.67,17.92-17H1865.05z"/>
	<polygon style="fill:#006591;" points="1919.88,247.93 1936.73,247.93 1936.73,339.82 1955.87,339.82 1955.87,247.93 
		1973.02,247.93 1973.02,340.12 1980.37,340.12 1980.37,369.53 1963.99,369.53 1963.99,355.13 1919.88,355.13 	"/>
	<polygon style="fill:#006591;" points="2006.41,293.11 2029.53,293.11 2029.53,308.42 2006.41,308.42 2006.41,339.82 
		2035.5,339.82 2035.5,355.13 1989.56,355.13 1989.56,247.93 2035.5,247.93 2035.5,263.24 2006.41,263.24 	"/>
	<polygon style="fill:#006591;" points="2062.77,355.13 2045.92,355.13 2045.92,247.93 2062.77,247.93 2062.77,293.87 
		2081.91,293.87 2081.91,247.93 2099.06,247.93 2099.06,355.13 2081.91,355.13 2081.91,309.19 2062.77,309.19 	"/>
	<polygon style="fill:#006591;" points="2106.41,247.93 2158.48,247.93 2158.48,263.24 2140.87,263.24 2140.87,355.13 
		2124.02,355.13 2124.02,263.24 2106.41,263.24 	"/>
	<path style="fill:#006591;" d="M2190.64,247.93c16.74,0,25.12,8.83,25.12,26.5v13.94c0,17.67-8.37,26.49-25.12,26.49h-7.96v40.28
		h-16.85V247.93H2190.64z M2182.68,263.24v36.3h7.96c5.51,0,8.27-3.37,8.27-10.11v-16.08c0-6.74-2.76-10.11-8.27-10.11H2182.68z"/>
</g>
</svg>
